<svg width="173" height="173" viewBox="0 0 173 173" fill="none" xmlns="http://www.w3.org/2000/svg">
<path d="M97.3127 20.3662C74.8391 25.1143 78.1868 51.3648 39.4956 66.0954C-1.97404 81.8841 23.1427 141.448 70.3249 144.839C117.285 148.214 145.436 127.039 150.257 86.7982C153.882 56.5397 130.709 13.3108 97.3127 20.3662Z" fill="#ECF2FA"/>
<path d="M44.9352 59.6482C55.0138 56.1849 70.2915 39.9985 64.7665 21.87C59.2416 3.74119 15.179 69.8725 44.9352 59.6482Z" fill="#ECF2FA"/>
<path d="M153.781 43.3503C152.598 43.3082 151.453 43.4431 150.358 43.7127C150.463 43.1122 150.542 42.5024 150.565 41.876C150.829 34.4496 145.023 28.2152 137.596 27.9511C134.163 27.8291 130.996 29.0146 128.545 31.0468C125.757 24.0063 119.014 18.9146 110.962 18.6281C100.113 18.2423 91.0061 26.7241 90.6206 37.5732C90.5956 38.2493 90.6068 38.9183 90.6495 39.5789C88.7776 38.5355 86.6437 37.8983 84.3554 37.8168C76.6367 37.5424 70.1568 43.5767 69.8823 51.2957C69.6084 59.0137 75.6424 65.4937 83.3604 65.7675L154.122 68.285L154.125 68.2226C160.444 67.8305 165.554 62.6977 165.784 56.2381C166.028 49.3647 160.654 43.5946 153.781 43.3503Z" fill="#0D2791"/>
<path d="M119.805 32.518L112.022 23.9335V13.1936H119.805V32.518Z" fill="#101C3A"/>
<path d="M127.557 15.8694L115.913 0H113.126V3.80009L104.271 15.8694H127.557Z" fill="#101C3A"/>
<path d="M117.017 32.518L109.234 23.9335V13.1936H117.017V32.518Z" fill="#FC721A"/>
<path d="M124.769 15.8694L113.126 0L101.483 15.8694H124.769Z" fill="#FC721A"/>
<path d="M160.071 55.5C160.071 61.9642 155.147 67.2751 148.845 67.8918V67.9535H78.0391C70.3165 67.9535 64.0546 61.6936 64.0546 53.969C64.0546 46.2469 70.3165 39.9851 78.0391 39.9851C78.1225 39.9851 78.2039 39.9851 78.286 39.9885H78.288C80.4869 40.0268 82.5526 40.5816 84.3922 41.5226C84.3252 40.864 84.2904 40.1956 84.2904 39.5187C84.2904 38.9674 84.3141 38.4208 84.3587 37.881C85.1896 27.7905 93.6425 19.8625 103.947 19.8625C104.363 19.8625 104.774 19.8758 105.182 19.9025H105.184C112.707 20.3689 119.081 25.0699 121.96 31.6477C123.929 29.8945 126.411 28.703 129.157 28.347C129.726 28.2718 130.306 28.2333 130.896 28.2333C132.154 28.2333 133.371 28.4054 134.526 28.7297H134.527C140.194 30.314 144.35 35.5146 144.35 41.688C144.35 42.3146 144.293 42.9264 144.211 43.5312C145.295 43.222 146.434 43.0467 147.618 43.0467C154.495 43.0467 160.071 48.6234 160.071 55.5Z" fill="#CFE0FA"/>
<path d="M75.5288 16.9885L76.7951 20.4226L76.7964 20.4221L77.0125 20.3548C77.2969 20.2485 77.582 20.1042 77.865 19.8917C78.2315 19.6181 78.529 19.2781 78.7491 18.8986L75.5288 16.9885Z" fill="#2348E6"/>
<path d="M114.621 144.34H97.538L91.3425 112.072C90.3488 106.9 94.3132 102.102 99.58 102.102C103.603 102.102 107.06 104.958 107.818 108.909L114.621 144.34Z" fill="#0D2791"/>
<path d="M97.7442 144.089H114.318L107.572 108.956C106.837 105.129 103.476 102.353 99.5799 102.353C97.1439 102.353 94.8576 103.429 93.3062 105.307C91.7549 107.184 91.1289 109.633 91.588 112.025L97.7442 144.089ZM114.923 144.59H97.3317L97.2917 144.387L91.0961 112.12C90.6094 109.581 91.2741 106.982 92.9213 104.988C94.5679 102.995 96.9941 101.852 99.5799 101.852C103.716 101.852 107.284 104.8 108.063 108.861L114.923 144.59Z" fill="#101C3A"/>
<path d="M97.2963 137.131L97.9813 136.999L93.1289 111.729C92.7585 109.798 93.2642 107.821 94.5167 106.306C95.7679 104.79 97.6142 103.921 99.5806 103.921C102.725 103.921 105.438 106.163 106.03 109.252L108.931 124.35L109.614 124.218L106.715 109.12C106.059 105.704 103.059 103.224 99.5806 103.224C97.4066 103.224 95.364 104.186 93.9788 105.862C92.5943 107.538 92.0347 109.724 92.4439 111.86L97.2963 137.131Z" fill="#101C3A"/>
<path d="M110.953 141.461H65.713V144.34H110.953V141.461Z" fill="#0D2791"/>
<path d="M65.9624 144.089H110.703V141.712H65.9624V144.089ZM111.204 144.59H65.4619V141.211H111.204V144.59Z" fill="#101C3A"/>
<path d="M102.819 141.113H65.713V141.81H102.819V141.113Z" fill="#101C3A"/>
<path d="M154.557 68.1715L152.409 92.8145L149.895 121.647L149.424 127.085C149.203 129.673 147.056 131.634 144.447 131.634H46.9221C44 131.634 41.6552 129.186 41.7511 126.304C41.7498 126.211 41.7544 126.117 41.7662 126.023L41.7997 125.643L41.9166 124.316L41.9718 123.655L42.383 118.985L44.2351 97.6512L46.8991 67.1108C46.9989 65.9568 47.4817 64.9289 48.2147 64.1421C49.125 63.1615 50.4346 62.554 51.8756 62.554H149.401C149.695 62.554 149.983 62.5809 150.264 62.6275C152.867 63.0682 154.79 65.4629 154.557 68.1715Z" fill="#0D2791"/>
<path d="M51.8762 62.8049C50.5554 62.8049 49.2871 63.354 48.3972 64.3123C47.6727 65.0912 47.2412 66.0659 47.1493 67.1319L42.0157 126.046C42.0046 126.136 42 126.219 42.0013 126.3C41.9566 127.643 42.4486 128.909 43.3865 129.878C44.3263 130.849 45.5815 131.384 46.9213 131.384H144.448C146.932 131.384 148.964 129.527 149.175 127.064L154.307 68.1493V68.1499C154.525 65.616 152.73 63.2988 150.222 62.8745C149.938 62.8273 149.669 62.8049 149.402 62.8049H51.8762ZM144.448 131.885H46.9213C45.4442 131.885 44.061 131.296 43.0272 130.226C41.9941 129.158 41.4522 127.763 41.5008 126.295C41.4995 126.203 41.5054 126.098 41.5179 125.993L43.9855 97.6289L46.6501 67.0886C46.7519 65.9103 47.2294 64.8325 48.0313 63.9714C49.0152 62.912 50.4168 62.3044 51.8762 62.3044H149.402C149.697 62.3044 149.992 62.3294 150.304 62.3813C153.069 62.8483 155.046 65.4012 154.807 68.1926V68.1933L149.674 127.107C149.441 129.83 147.194 131.885 144.448 131.885Z" fill="#101C3A"/>
<path d="M147.255 124.41L152.176 67.9194C152.243 67.1503 151.989 66.4107 151.464 65.836C150.936 65.2626 150.219 64.946 149.447 64.946H51.9156C50.5331 64.946 49.3995 65.9831 49.2799 67.3585L44.3099 124.41H147.255Z" fill="white"/>
<path d="M46.8885 129.78H144.418C144.526 129.78 144.634 129.775 144.741 129.764L144.66 129.072C144.576 129.08 144.492 129.084 144.406 129.084H46.876C46.1502 129.084 45.4777 128.786 44.9811 128.247C44.4859 127.707 44.2481 127.012 44.3092 126.29L49.4434 67.3761C49.555 66.0835 50.619 65.1095 51.9175 65.1095L51.9057 64.4126C50.248 64.4126 48.8917 65.6553 48.7492 67.3032L43.6156 126.218C43.5368 127.139 43.8403 128.025 44.4714 128.714C45.1046 129.401 45.9624 129.78 46.8885 129.78Z" fill="#101C3A"/>
<path d="M18.9655 61.2816C18.9655 62.1473 18.263 62.8494 17.3972 62.8494C16.5311 62.8494 15.8293 62.1473 15.8293 61.2816C15.8293 60.4153 16.5311 59.7139 17.3972 59.7139C18.263 59.7139 18.9655 60.4153 18.9655 61.2816Z" fill="#FC721A"/>
<path d="M57.5666 4.4284C57.3748 4.66018 57.0319 4.69308 56.8001 4.50176C56.5682 4.31037 56.5354 3.96746 56.7272 3.73567C56.9183 3.50389 57.2611 3.47099 57.493 3.66238C57.7248 3.8537 57.7577 4.19661 57.5666 4.4284Z" fill="#FC721A"/>
<path d="M14.4988 18.9618C14.3077 19.1936 13.9647 19.2263 13.733 19.0352C13.501 18.8438 13.4683 18.5009 13.6594 18.2691C13.8508 18.0373 14.1937 18.0044 14.4255 18.1958C14.6574 18.3869 14.6901 18.7301 14.4988 18.9618Z" fill="#FC721A"/>
<path d="M158.753 29.9363C159.136 30.139 159.281 30.6134 159.078 30.9959C158.875 31.3786 158.401 31.5244 158.019 31.3217C157.636 31.1191 157.49 30.6449 157.693 30.2621C157.896 29.8796 158.37 29.7336 158.753 29.9363Z" fill="#2348E6"/>
<path d="M146.604 13.5213C147.369 13.9267 147.661 14.8756 147.256 15.6407C146.85 16.4059 145.902 16.6975 145.137 16.2924C144.371 15.887 144.079 14.9384 144.485 14.173C144.89 13.4078 145.839 13.1159 146.604 13.5213Z" fill="black"/>
<path d="M47.9717 20.8169C38.7575 23.3151 31.8887 21.1083 31.8887 21.1083L30.8076 21.504C30.8076 21.504 27.0166 27.7207 19.4437 31.2576L42.5669 53.3673L43.648 52.9719C57.2088 40.0696 47.9717 20.8169 47.9717 20.8169Z" fill="#101C3A"/>
<path d="M46.8905 21.2129C37.6763 23.7109 30.8075 21.5041 30.8075 21.5041C30.8075 21.5041 27.0086 27.6151 18.3627 31.6534C18.3627 31.6534 23.8435 52.281 42.5668 53.3674C56.1276 40.4654 46.8905 21.2129 46.8905 21.2129Z" fill="#0D2791"/>
<path d="M41.7306 51.1032C25.668 50.1719 20.9653 32.4753 20.9653 32.4753C28.3825 29.0109 31.6429 23.7683 31.6429 23.7683C31.6429 23.7683 37.5337 25.6619 45.4382 23.5188C45.4382 23.5188 53.3631 40.0358 41.7306 51.1032Z" fill="#CFE0FA"/>
<path d="M33.5292 35.9422L32.8337 34.0411C32.5368 33.1628 32.6583 32.2467 33.1115 31.5065C33.1831 31.3872 33.2658 31.2717 33.3493 31.1625C33.6238 30.8294 33.9706 30.5489 34.385 30.3567C34.4652 30.3152 34.5512 30.2797 34.6386 30.2477C34.7174 30.219 34.7968 30.194 34.8757 30.1711C34.9676 30.1474 35.0615 30.1273 35.1574 30.1125C35.252 30.0942 35.3485 30.0811 35.4477 30.077C35.5666 30.064 35.6901 30.0651 35.809 30.0683C36.0704 30.0818 36.3206 30.1298 36.559 30.2064C36.7948 30.2759 37.026 30.3772 37.2368 30.5104C37.3393 30.5759 37.4378 30.6451 37.5298 30.7206C37.5508 30.7332 37.5685 30.749 37.5856 30.7629C37.979 31.0919 38.2923 31.5215 38.4802 32.0353L39.156 33.8829L33.5292 35.9422ZM41.5474 33.3091C41.309 33.2105 41.0325 33.1962 40.7704 33.2922L40.444 33.4114L39.7675 31.564C39.6775 31.3177 39.5619 31.0891 39.4378 30.8777C39.3274 30.6857 39.2046 30.5059 39.0713 30.3405C39.0016 30.2506 38.9281 30.1644 38.8512 30.0813C38.559 29.7696 38.2214 29.5049 37.8555 29.2889C37.8194 29.2678 37.782 29.249 37.7465 29.2296C37.6611 29.184 37.5771 29.1421 37.4917 29.1025C37.2677 28.9984 37.0345 28.914 36.8014 28.8515C36.5584 28.7848 36.3101 28.7421 36.0533 28.7207C35.9324 28.7104 35.8136 28.6995 35.6875 28.6989C35.3531 28.6961 35.0169 28.7341 34.6832 28.8178C34.5282 28.8522 34.3798 28.8945 34.2274 28.9464L34.1703 28.9672C34.077 29.0012 33.9831 29.0375 33.8911 29.0792L33.8898 29.0799C33.8287 29.1064 33.767 29.137 33.7072 29.1669C32.9657 29.5393 32.37 30.0993 31.9621 30.7702C31.2823 31.8642 31.0945 33.2559 31.5726 34.5632L32.2485 36.4109L31.9188 36.5317C31.8491 36.5571 31.7828 36.5896 31.7217 36.6281C31.3014 36.8889 31.1076 37.4149 31.2843 37.8983L33.8346 44.8665C33.8484 44.9039 33.8648 44.9424 33.8819 44.9785C33.8944 45.0023 33.9075 45.0258 33.9213 45.0472C33.9272 45.0589 33.9358 45.0702 33.9423 45.082C33.9555 45.1032 33.9719 45.1256 33.9877 45.1462C34.0113 45.1777 34.0363 45.2071 34.0625 45.234C34.0717 45.2428 34.0796 45.2539 34.0895 45.2627C34.1079 45.2802 34.1276 45.2971 34.146 45.3127C34.1696 45.3343 34.1946 45.3516 34.2195 45.3706C34.2307 45.3787 34.2438 45.3862 34.2569 45.3954C34.2648 45.4005 34.2753 45.407 34.2839 45.4138C34.297 45.4213 34.3088 45.4269 34.3193 45.4333C34.3397 45.4442 34.3568 45.4538 34.3765 45.4628C34.3955 45.4701 34.4133 45.4799 34.4323 45.4872L34.4461 45.4921C34.4671 45.5004 34.4888 45.5087 34.5092 45.5154C34.5387 45.5248 34.5702 45.5335 34.6011 45.5404C34.6143 45.5436 34.6294 45.5461 34.6431 45.5494C34.6858 45.556 34.7305 45.5618 34.7738 45.5641C34.9144 45.5733 35.0615 45.5541 35.2021 45.5025L44.0537 42.263C44.6067 42.0608 44.8898 41.4473 44.6875 40.8945L42.1372 33.9265C42.0308 33.6357 41.8121 33.4204 41.5474 33.3091Z" fill="#101C3A"/>
<path d="M39.7282 37.1035L34.1014 39.1631L32.2985 34.2371C32.0016 33.3588 32.1231 32.4427 32.5763 31.7024C32.6479 31.5832 32.7313 31.4677 32.8147 31.3585C33.1438 30.9589 33.576 30.6369 34.1034 30.4436C34.1986 30.4092 34.2906 30.3795 34.3851 30.3568C34.4626 30.3365 34.5415 30.3198 34.6222 30.3085C34.7168 30.2901 34.8134 30.2771 34.9125 30.273C34.927 30.2719 34.9401 30.2709 34.9546 30.27C35.0597 30.2597 35.17 30.2619 35.2738 30.2642C35.5352 30.2777 35.7854 30.3256 36.0238 30.4021C36.2596 30.4716 36.4908 30.5732 36.7017 30.7064C36.7811 30.7581 36.8593 30.8105 36.9328 30.8684C36.9742 30.8979 37.013 30.9281 37.0511 30.9586C37.4445 31.2879 37.7571 31.7174 37.945 32.2312L39.7282 37.1035ZM39.0261 31.2997C38.9873 31.2208 38.9459 31.147 38.9026 31.0737C38.7804 30.8596 38.6438 30.6649 38.4927 30.4836C38.4382 30.4124 38.3771 30.344 38.3161 30.2773C38.1 30.0468 37.8589 29.84 37.5975 29.6624C37.5082 29.6002 37.4156 29.5409 37.3204 29.4849C37.2028 29.4186 37.0787 29.3549 36.9565 29.2985C36.7325 29.1943 36.4994 29.1097 36.2662 29.0475C36.0238 28.9807 35.7756 28.9381 35.5188 28.9166C35.3979 28.9064 35.2784 28.8955 35.1529 28.8948C34.8429 28.8931 34.5303 28.9243 34.2216 28.997C34.1973 29.002 34.1723 29.0068 34.1487 29.0137C34.0627 29.033 33.9753 29.0548 33.8912 29.0793L33.8899 29.08C33.8039 29.1054 33.7205 29.1319 33.6351 29.1631C33.4781 29.2207 33.3218 29.2858 33.172 29.3628C32.4312 29.7353 31.8348 30.2953 31.4269 30.9661C30.7478 32.0604 30.5593 33.4518 31.0375 34.7592L33.2903 40.9138L41.4851 37.9146L39.2329 31.7597C39.1738 31.5994 39.1036 31.4452 39.0261 31.2997Z" fill="#0D2791"/>
<path d="M41.6019 34.1227L44.1523 41.09C44.3546 41.6434 44.0708 42.2557 43.5178 42.4581L34.6675 45.6971C34.5263 45.749 34.3805 45.769 34.2386 45.7607C34.1946 45.7584 34.1512 45.7526 34.1079 45.7447C34.0941 45.7424 34.0803 45.7396 34.0665 45.7359C34.0356 45.7293 34.0048 45.721 33.9739 45.7109C33.9529 45.7041 33.9319 45.6966 33.9109 45.6885L33.8977 45.6827C33.8787 45.675 33.8596 45.6669 33.8419 45.6583C33.8222 45.6494 33.8038 45.6397 33.7854 45.6292C33.7729 45.623 33.7618 45.6162 33.7493 45.6087C33.7401 45.6029 33.7309 45.597 33.7217 45.5906C33.7079 45.5828 33.6961 45.5747 33.6849 45.5656C33.6593 45.548 33.635 45.5296 33.6114 45.5093C33.5923 45.4931 33.5733 45.4755 33.5549 45.4578C33.5457 45.4493 33.5365 45.4394 33.5273 45.4302C33.5004 45.4022 33.4754 45.3731 33.4518 45.3419V45.3415C33.436 45.3207 33.4215 45.2998 33.4071 45.278C33.3999 45.2664 33.3926 45.2553 33.3861 45.244C33.3723 45.2211 33.3598 45.198 33.3473 45.1739C33.3296 45.1375 33.3138 45.1006 33.2994 45.0621L30.7497 38.0947C30.5474 37.542 30.8311 36.9295 31.3848 36.727L40.2345 33.4882C40.4972 33.3921 40.7731 33.4054 41.0121 33.5057C41.2768 33.616 41.4962 33.8324 41.6019 34.1227Z" fill="#0D2791"/>
<path d="M38.1827 37.9829C37.9476 37.3393 37.2349 37.0086 36.5913 37.2442C35.9476 37.4796 35.6172 38.1922 35.8524 38.8357C35.9956 39.2253 36.3128 39.4991 36.6839 39.603L37.4727 41.7567C37.6014 42.1098 37.9929 42.2914 38.3456 42.1623C38.6989 42.0329 38.8802 41.6419 38.7515 41.2886L37.9824 39.1876C38.2464 38.8599 38.3383 38.4069 38.1827 37.9829Z" fill="#CFE0FA"/>
<path d="M38.5151 42.0725C38.4645 42.1095 38.4087 42.1398 38.3463 42.1627C37.9929 42.292 37.6008 42.1098 37.4714 41.7569L36.6839 39.6042C36.3135 39.4989 35.995 39.2253 35.8524 38.8364C35.6173 38.1926 35.9483 37.4788 36.5907 37.2438C36.6511 37.2218 36.7115 37.2055 36.7739 37.1929C36.2472 37.4828 35.9963 38.1227 36.2091 38.7059C36.3516 39.0946 36.6701 39.3685 37.0406 39.4735L37.8281 41.6262C37.9345 41.917 38.2215 42.093 38.5151 42.0725Z" fill="#101C3A"/>
<path d="M142.52 62.3045H81.6455L81.66 62.2224H142.534L142.52 62.3045Z" fill="#93A1B9"/>
<path d="M142.058 64.9461H81.1851L81.5581 62.8049H142.433L142.058 64.9461Z" fill="#2B0E79"/>
<path d="M142.433 62.8049H81.5581L81.6455 62.3044H142.52L142.433 62.8049Z" fill="#0E1833"/>
<path d="M142.131 124.41H59.8739L68.8595 73.2493L69.2654 70.6313L80.9787 66.1296L81.185 64.946H142.058L140.032 76.5339L149.132 84.3104L148.784 86.2039L148.852 86.1553L142.131 124.41Z" fill="#B5B7BC"/>
<path d="M145.893 61.3074L145.811 61.2936L135.398 59.7521L113.196 53.3175L121.646 51.5073L140.927 55.2169L143.443 56.5653L145.811 61.2739L145.893 61.3074Z" fill="#131313"/>
<path d="M54.261 119.008L132.676 132.782L141.704 83.427L105.907 52.8164L61.8378 69.7492L54.261 119.008Z" fill="#101C3A"/>
<path d="M124.664 121.053L135.44 59.452L76.3812 49.0779L65.6039 110.678L124.664 121.053Z" fill="white"/>
<path d="M51.9314 126.143L131.738 140.162L108.189 108.675L84.9518 104.594L51.9314 126.143Z" fill="#FC721A"/>
<path d="M85.0029 104.603L61.6302 71.2544L51.9897 126.134L85.0029 104.603Z" fill="#FC721A"/>
<path d="M141.425 85.2712L108.189 108.675L131.785 140.151L141.425 85.2712Z" fill="#FC721A"/>
<path d="M82.5025 44.325L82.4717 44.401C82.1912 44.3548 81.9062 44.325 81.6126 44.325C78.7049 44.325 76.347 46.6825 76.347 49.5907C76.347 51.3713 77.2337 52.9424 78.5867 53.8954L78.194 54.8543L121.588 58.5166L135.441 59.4525C135.87 56.9751 138.029 55.096 140.629 55.096C140.817 55.096 141 55.1059 141.179 55.1249L141.189 55.096L82.5025 44.325Z" fill="white"/>
<path d="M145.893 60.3654C145.893 60.6748 145.864 60.9789 145.811 61.2738V61.2935L135.398 59.752C135.494 58.8929 135.798 58.0955 136.262 57.4144C137.208 56.0135 138.812 55.0959 140.629 55.0959C143.537 55.0959 145.893 57.4532 145.893 60.3654Z" fill="#131313"/>
<path d="M58.3127 122.045L57.7971 121.227L84.9024 104.095L96.2098 106.08L96.0423 107.033L85.1034 105.11L58.3127 122.045Z" fill="#101C3A"/>
<path d="M131.399 140.441L112.686 115.479L113.459 114.9L132.171 139.861L131.399 140.441Z" fill="#101C3A"/>
<path d="M96.4063 75.1028C96.1318 76.6626 96.2887 77.9401 96.8772 78.9352C97.4651 79.9309 98.2375 80.5121 99.1944 80.6803C99.8315 80.7919 100.537 80.7197 101.309 80.4622C102.082 80.2047 102.857 79.7568 103.632 79.1177C104.407 78.48 105.102 77.6189 105.714 76.5352C106.327 75.4515 106.735 74.3291 106.939 73.1678C107.211 71.6198 107.038 70.3508 106.42 69.3617C105.801 68.3726 104.939 67.7815 103.835 67.5877C103.107 67.4596 102.388 67.524 101.68 67.7808C100.972 68.0383 100.243 68.5236 99.4965 69.2369C98.7485 69.9508 98.0903 70.8625 97.5196 71.9705C96.9495 73.0798 96.5777 74.1235 96.4063 75.1028ZM103.859 81.1827C102.969 81.9065 102.02 82.447 101.012 82.8043C100.006 83.1616 99.0407 83.2588 98.1179 83.0966C97.1045 82.9186 96.1718 82.4497 95.3193 81.6898C94.4668 80.9298 93.8507 79.8823 93.4685 78.5477C93.0869 77.213 93.0251 75.8114 93.2832 74.3428C93.6005 72.5327 94.3834 70.8007 95.63 69.1476C96.8772 67.4951 98.269 66.3345 99.8065 65.6653C101.345 64.9966 102.762 64.7759 104.06 65.0039C105.051 65.1779 105.95 65.6029 106.759 66.2787C107.567 66.9552 108.203 67.8793 108.666 69.0523L109.712 66.5073L112.769 67.0439L108.296 78.0715C107.675 79.6057 107.349 80.4576 107.319 80.6284C107.265 80.9364 107.335 81.2208 107.53 81.4842C107.724 81.7476 107.986 81.9078 108.317 81.9656C108.92 82.072 109.772 81.8638 110.873 81.341C112.332 80.6586 113.573 79.6176 114.6 78.2193C115.625 76.8209 116.282 75.3077 116.567 73.6795C116.902 71.7781 116.727 69.9167 116.043 68.0947C115.359 66.2728 114.14 64.6971 112.384 63.3678C110.629 62.0378 108.583 61.1682 106.25 60.7583C103.586 60.2907 101.043 60.4864 98.6204 61.3462C96.1981 62.2059 94.1765 63.6929 92.5549 65.8084C90.9332 67.924 89.8889 70.3141 89.4206 72.978C88.9307 75.7674 89.1152 78.2764 89.9736 80.5042C90.8321 82.7321 92.3237 84.5291 94.4491 85.8939C96.5745 87.2587 99.0315 88.1868 101.821 88.6768C104.804 89.2002 107.391 89.1385 109.582 88.4909C111.773 87.8426 113.495 86.8896 114.75 85.6305L117.841 86.1737C117.05 87.2673 115.84 88.3109 114.21 89.3033C112.581 90.2964 110.728 90.9834 108.655 91.3644C106.581 91.7453 104.172 91.6954 101.428 91.2126C98.9008 90.7687 96.6263 90.035 94.606 89.0111C92.5851 87.9871 90.9378 86.6913 89.6636 85.1235C88.3901 83.5564 87.5199 81.8572 87.0555 80.0268C86.4775 77.707 86.4072 75.3004 86.8453 72.8066C87.3327 70.029 88.3671 67.482 89.9474 65.1654C91.879 62.3241 94.2665 60.3084 97.1104 59.1177C99.9537 57.9275 103.198 57.6517 106.841 58.2921C109.665 58.7879 112.099 59.8112 114.145 61.3619C116.19 62.9126 117.662 64.9461 118.557 67.4622C119.316 69.6264 119.492 71.8634 119.086 74.1747C118.506 77.4764 116.83 80.2041 114.057 82.3577C111.581 84.294 109.113 85.0453 106.654 84.6138C105.869 84.4752 105.255 84.2447 104.813 83.9209C104.371 83.5971 104.075 83.1925 103.925 82.7085C103.827 82.3984 103.805 81.8894 103.859 81.1827Z" fill="#0D2791"/>
<path d="M50.483 64.4691C50.4804 64.4625 50.4764 64.4559 50.4738 64.45C50.1809 63.6652 51.7638 54.0766 54.1998 53.3725C55.227 53.0783 59.5639 53.3909 60.5103 53.3909C64.214 53.3909 63.2439 58.0292 63.0804 61.1444C62.8984 64.6405 61.3385 69.8417 58.6306 69.9205C58.2976 69.9297 57.7642 69.7812 57.1258 69.5211L55.0556 75.8034C55.0556 75.8034 49.2791 77.2635 46.8253 73.3463L50.483 64.4691Z" fill="#F8A3A2"/>
<path d="M28.3968 100.188C27.9456 101.007 23.2278 99.2721 17.8585 96.3146C12.4894 93.357 11.0678 91.4858 11.5187 90.6668C11.9694 89.8484 14.1217 90.3936 19.4913 93.3511C24.86 96.3087 28.8474 99.3693 28.3968 100.188Z" fill="#101C3A"/>
<path d="M12.3044 133.535C12.3044 133.535 8.26187 134.91 7.33841 133.46C6.41542 132.011 9.34558 132.247 9.34558 132.247C9.34558 132.247 7.34439 131.957 7.46327 131.326C7.58195 130.694 8.80129 130.048 9.98464 130.229C11.1678 130.411 13.711 129.944 13.7056 130.556C13.7005 131.167 14.2312 132.524 12.3044 133.535Z" fill="#D17F80"/>
<path d="M33.573 92.2298C33.573 92.2298 27.233 97.8684 22.0568 101.87C19.3297 107.703 16.4455 118.683 15.4434 121.19L15.4494 121.191C15.4494 121.191 15.1191 121.823 15.9691 126.456C16.819 131.09 14.7308 134.075 11.5135 136.041C8.29584 138.008 9.02942 136.305 9.60943 135.565C10.1894 134.826 13.9902 131.789 13.371 130.664C13.371 130.664 12.4256 130.011 11.5965 131.393C10.7674 132.774 10.2204 134.095 9.11191 134.353C8.00317 134.612 8.51843 133.618 8.70273 132.924C8.88722 132.229 9.73067 130.524 9.82282 129.626C9.91497 128.729 9.27657 126.149 10.2701 124.663C10.2701 124.663 10.6374 121.864 10.5771 121.104C10.5747 121.074 10.5927 121.05 10.6053 121.024L10.6278 98.9114C10.6907 97.54 11.0816 96.191 11.8421 95.0488C11.8464 95.0429 11.8507 95.0363 11.8552 95.0297C11.9539 94.8406 12.0666 94.658 12.2092 94.4866C15.3051 90.7704 18.9501 84.7502 26.6077 81.1129C34.2653 77.4756 41.957 86.1643 33.573 92.2298Z" fill="#F8A3A2"/>
<path d="M51.7682 78.0424C50.6103 75.0573 45.643 71.326 39.0336 73.0902C32.4243 74.8537 22.816 79.3278 11.5739 90.5918C11.5739 90.5918 22.0272 92.3041 28.3607 100.235C28.3607 100.235 41.3652 95.0698 46.2919 90.8795C51.2191 86.6898 53.045 81.3356 51.7682 78.0424Z" fill="#2348E6"/>
<path d="M19.1234 129.375C18.1059 133.653 17.6179 162.043 19.836 166.571C21.4169 169.796 39.2148 177.793 40.8646 168.806C42.3129 160.914 46.6142 134.541 46.2412 129.845C45.8806 125.311 22.1801 116.522 19.1234 129.375Z" fill="#101C3A"/>
<path d="M46.9414 120.494C46.7391 117.478 36.2566 112.458 28.3009 113.187L26.0054 141.14C26.6924 141.945 28.9117 145.286 29.3268 146.197C32.4827 153.122 35.3516 157.943 42.4771 159.856C44.4633 146.134 47.1811 124.085 46.9414 120.494Z" fill="#101C3A"/>
<path d="M27.2533 125.777C27.9023 130.127 41.7521 165.955 45.4965 169.33C48.1644 171.736 58.0216 172.308 63.0382 164.671C68.0541 157.034 54.691 120.335 52.5951 116.116C50.5722 112.041 25.3033 112.71 27.2533 125.777Z" fill="#101C3A"/>
<path d="M61.4389 77.7159C66.7826 82.6917 67.2679 92.3637 64.4693 108.236C61.6707 124.108 62.3781 134.964 59.8048 138.703C59.8048 138.703 38.1765 151.558 13.8115 135.526C13.8115 135.526 12.5534 128.281 18.375 109.088C24.1966 89.8948 28.23 87.4758 32.3993 80.3765C36.5686 73.2779 50.3554 68.8504 53.315 71.3719C56.2837 73.9005 57.3135 73.8749 61.4389 77.7159Z" fill="#2348E6"/>
<path d="M92.8613 65.2173C89.7882 66.7995 88.5908 67.543 89.0578 71.8358C89.5242 76.1279 90.4115 77.5722 90.4115 77.5722C90.4115 77.5722 90.6578 78.6415 90.4082 79.1781C90.3806 79.2215 90.3576 79.2674 90.3432 79.3173V79.318C89.0907 82.0168 83.9762 90.5998 83.9762 90.5998C80.5996 88.4783 76.4421 86.0364 76.4421 86.0364C67.6568 81.5958 59.7982 94.5215 66.2145 99.4068C72.2701 104.017 80.859 106.878 85.6596 106.869C87.5544 107.064 89.5327 106.03 91.0801 102.96C94.3904 96.3908 96.2064 79.186 96.2057 79.117C96.2589 78.721 96.0067 76.681 95.8636 76.3992C95.4576 75.5513 95.1345 74.6541 95.1765 74.4334C95.5017 72.7474 94.7503 71.5698 93.8584 70.7941C94.3798 70.7107 94.8915 70.6378 95.3086 70.6371C96.6208 70.6345 97.9272 69.8634 98.0231 69.2631C98.119 68.6635 95.9003 68.6838 95.9003 68.6838C95.9003 68.6838 99.139 68.4809 98.0428 67.277C96.9466 66.0724 93.8038 67.3046 92.5723 67.9219C92.4292 67.9935 92.2985 68.0671 92.1756 68.1413C92.7996 67.4773 93.7362 66.8579 94.0758 66.4855C94.655 65.8484 95.9345 63.635 92.8613 65.2173Z" fill="#F8A3A2"/>
<path d="M51.8827 77.9906C50.0811 79.8927 48.667 82.7885 51.9313 88.2609C55.1962 93.7327 64.6955 101.355 73.0427 105.725C73.0427 105.725 84.2286 96.6199 81.7557 86.8127C81.7557 86.8127 67.5085 78.7564 62.683 76.5804C57.8569 74.4051 53.8702 75.8915 51.8827 77.9906Z" fill="#2348E6"/>
<path d="M69.6207 96.153C69.5668 96.1813 64.1739 98.884 59.464 94.178L59.7405 93.9009C64.2435 98.4006 69.3901 95.8319 69.4414 95.8049L69.6207 96.153Z" fill="white"/>
<path d="M77.6258 101.414C75.5148 104.179 73.3303 105.939 73.3001 105.964L73.2213 106.026L73.1247 105.998C73.0026 105.964 60.8716 102.424 54.4363 94.2931L54.743 94.05C60.796 101.698 71.9721 105.241 73.1339 105.593C73.7159 105.109 77.3959 101.945 79.564 97.6237L79.9134 97.799C79.2481 99.1258 78.4422 100.345 77.6258 101.414Z" fill="white"/>
<path d="M86.6079 94.9136C85.3042 91.7741 83.3036 90.4237 83.2832 90.4106L83.5072 90.071C83.5932 90.1275 85.6293 91.4956 86.9829 94.7579L86.6079 94.9136Z" fill="#D17F80"/>
<path d="M33.933 124.526C29.2835 123.571 26.9263 120.435 26.8915 120.387L27.2067 120.157C27.2586 120.227 32.5045 127.181 42.872 123.146L43.0138 123.512C39.3739 124.928 36.3447 125.02 33.933 124.526Z" fill="white"/>
<path d="M21.9406 98.9652L21.6365 98.8437C25.4886 89.1743 31.5357 81.9805 31.5961 81.9082L31.8464 82.1204C31.7859 82.1913 25.7723 89.3471 21.9406 98.9652Z" fill="white"/>
<path d="M57.0706 69.6809L57.181 69.3611C57.1678 69.3565 55.8752 68.9092 55.0766 68.3647L54.8861 68.6452C55.7229 69.2153 57.0161 69.6626 57.0706 69.6809Z" fill="#101C3A"/>
<path d="M43.8428 59.1366C44.7748 49.9651 50.1697 46.9242 57.3307 50.1614C60.5517 51.6176 61.9145 50.6843 64.187 52.5154C66.3052 54.2224 58.687 62.6189 58.687 62.6189L57.4115 58.8587C57.4115 58.8587 54.9466 60.1743 54.2727 63.7637C53.5811 67.4509 53.7985 77.5774 53.7985 77.5774C53.7985 77.5774 44.382 78.4772 39.4285 74.7499C39.4285 74.7499 43.4474 63.0281 43.8428 59.1366Z" fill="#101C3A"/>
<path d="M53.803 59.9325C53.3748 61.3466 54.0092 62.7908 55.221 63.1573C56.4322 63.5251 57.7622 62.6759 58.1904 61.2618C58.6193 59.8477 57.9842 58.4035 56.7724 58.037C55.5606 57.6698 54.2312 58.5184 53.803 59.9325Z" fill="#F8A3A2"/>
<path d="M55.9173 62.5761C56.2726 62.5761 56.6345 62.3271 56.6798 62.2943L56.4131 61.9193C56.2726 62.0178 56.0066 62.1452 55.8634 62.1091C55.8365 62.1019 55.8056 62.0855 55.7774 62.0211C55.7268 61.9061 55.7439 61.874 55.8844 61.7032C56.0407 61.514 56.2765 61.229 56.2174 60.695C56.176 60.3226 56.0217 60.0599 55.8982 59.8484C55.7143 59.5338 55.6815 59.4773 55.9481 59.2566C56.0374 59.1831 56.1333 59.1522 56.2529 59.1653C56.6575 59.2054 57.1441 59.7065 57.2978 59.8964L57.6558 59.6067C57.5875 59.522 56.9662 58.7745 56.2995 58.7069C56.0604 58.6846 55.8378 58.7502 55.6545 58.902C55.0871 59.3722 55.3163 59.765 55.5008 60.0803C55.6132 60.2727 55.7287 60.471 55.7596 60.7462C55.7971 61.0858 55.6736 61.2362 55.5297 61.4096C55.3852 61.5843 55.1876 61.824 55.3557 62.207C55.4345 62.3856 55.5678 62.5051 55.7419 62.5531C55.799 62.5689 55.8581 62.5761 55.9173 62.5761Z" fill="#101C3A"/>
<path d="M143.947 144.59H17.3973V145.551H143.947V144.59Z" fill="#131313"/>
</svg>
