<svg width="258" height="152" viewBox="0 0 258 152" fill="none" xmlns="http://www.w3.org/2000/svg">
<path d="M50.1399 136.765C49.3743 137.663 49.1429 139.241 48.8408 140.342C48.6 141.221 48.4002 142.111 48.2199 143.004H47.6278C48.0483 140.563 48.423 138.077 49.0917 135.716C49.5768 134.003 50.6694 133.16 52.329 132.672C53.7243 132.262 55.1412 131.917 56.5465 131.542C56.7659 131.483 52.7394 131.632 50.9122 132.136C50.2731 132.312 49.4658 132.479 48.7446 132.772C49.6333 130.174 50.7797 127.595 52.0075 125.006C52.1245 124.759 44.3347 132.012 46.2816 143.004H45.7159C45.6977 142.978 45.6795 142.952 45.6614 142.926C44.8662 140.26 45.0095 137.379 43.9297 134.79C42.934 132.4 41.0241 130.583 38.9798 129.068C38.7927 128.93 38.6285 129.186 38.6982 129.35C39.7038 131.688 41.3981 133.582 42.4516 135.876C43.3094 137.743 43.9902 139.709 44.6731 141.661C43.777 140.687 42.7181 140.015 41.1956 139.835C38.8228 139.553 37.7724 140.934 37.0124 142.996C36.9303 143.218 37.2778 143.353 37.3882 143.154C38.1258 141.826 39.9834 141.491 41.3853 141.489C42.8069 141.489 43.9209 142.176 44.9832 143.004H43.2912L44.595 150.918H49.1321L50.4359 143.004H49.3097C49.6878 142.103 50.0101 141.176 50.4325 140.285C50.9889 139.112 51.5312 138.04 53.0597 138.26C54.0224 138.398 55.012 138.788 55.9512 139.044C56.2075 139.113 51.4868 135.184 50.1399 136.765Z" fill="#DBCAC2"/>
<path d="M156.357 33.4444C149.388 28.1929 145.253 23.4093 143.576 21.2784V4.82861H141.817V21.2784C140.14 23.4093 136.006 28.1929 129.036 33.4444H139.188C139.188 35.3397 140.724 36.8753 142.618 36.8753C144.513 36.8753 146.049 35.3397 146.049 33.4444H156.357Z" fill="#DBCAC2"/>
<path d="M199.371 51.5863C192.401 46.3354 188.267 41.5511 186.589 39.4201V11.7246H184.831V39.4201C183.153 41.5511 179.02 46.3347 172.049 51.5863H182.201C182.201 53.4814 183.737 55.0173 185.632 55.0173C187.526 55.0173 189.062 53.4814 189.062 51.5863H199.371Z" fill="#DBCAC2"/>
<path d="M249.8 77.3676H213.005V40.5732H249.8V77.3676ZM205.153 32.7205V85.2214H257.653V32.7205H205.153Z" fill="#DBCAC2"/>
<path d="M198.063 76.4574H185.078V63.4725H198.063V76.4574ZM182.306 60.7014V79.2284H200.834V60.7014H182.306Z" fill="#DBCAC2"/>
<path d="M175.349 76.4574H162.364V63.4725H175.349V76.4574ZM159.593 60.7014V79.2284H178.12V60.7014H159.593Z" fill="#DBCAC2"/>
<path d="M206.666 79.5621C200.242 77.599 196.628 70.7988 198.59 64.3753C200.554 57.9532 207.353 54.3372 213.776 56.3009C220.199 58.2647 223.815 65.0629 221.852 71.4857C219.888 77.9098 213.089 81.5259 206.666 79.5621ZM229.311 77.2902L231.281 70.8452L227.324 69.2508C227.484 67.2393 227.278 65.2573 226.755 63.3669L230.335 61.0486L227.174 55.1027L223.25 56.7745C221.975 55.2837 220.447 54.0068 218.69 53.0132L219.579 48.8414L213.135 46.8716L211.54 50.8274C209.535 50.6706 207.546 50.8731 205.657 51.3959L203.337 47.8168L197.393 50.9774L199.064 54.9016C197.574 56.1765 196.296 57.705 195.303 59.4622L191.131 58.5721L189.162 65.0165L193.117 66.6122C192.96 68.6164 193.163 70.605 193.686 72.4955L190.107 74.8152L193.267 80.7589L197.191 79.0878C198.466 80.5786 200.002 81.8582 201.751 82.8499L200.862 87.0216L207.307 88.9908L208.902 85.0343C210.914 85.1944 212.895 84.9892 214.784 84.4658L217.104 88.0456L223.049 84.8843L221.378 80.9601C222.868 79.6852 224.148 78.15 225.138 76.4002L229.311 77.2902Z" fill="#FAF4F0"/>
<path d="M191.795 66.2397L188.98 65.1041L190.465 60.2441L190.749 60.3309L189.345 64.9299L191.906 65.9632L191.795 66.2397Z" fill="#312113"/>
<path d="M201.007 87.0524L200.716 86.9899L201.582 82.9311C199.574 81.9106 198.032 80.2132 198.016 80.1957L198.237 79.9966C198.253 80.0134 199.812 81.7283 201.817 82.7159L201.921 82.767L201.007 87.0524Z" fill="#312113"/>
<path d="M217.072 78.1581L216.901 77.9146C224.725 72.4222 221.59 64.0431 221.558 63.959L221.835 63.8513C221.869 63.9374 225.09 72.5292 217.072 78.1581Z" fill="#312113"/>
<path d="M227.219 66.6263C226.999 64.8711 226.614 63.4193 226.611 63.4052L226.583 63.3002L227.899 62.4492L228.06 62.6988L226.926 63.4335C227.018 63.8008 227.326 65.0851 227.515 66.59L227.219 66.6263Z" fill="#312113"/>
<path d="M202.787 86.4417L208.977 88.3329L210.564 84.3945L210.677 84.4093C213.998 84.8406 216.464 83.8604 216.488 83.8503L216.601 83.8045L218.915 87.3749L224.624 84.3387L222.961 80.434L223.049 80.3641C225.529 78.3788 226.758 75.8775 226.77 75.8526L226.821 75.7483L230.976 76.6343L232.868 70.4456L228.932 68.8586L228.943 68.7476C229.293 65.5009 228.391 62.9525 228.382 62.9269L228.342 62.8166L231.91 60.507L228.873 54.798L224.965 56.4624L224.896 56.3703C223.223 54.1535 220.412 52.6634 220.383 52.6486L220.284 52.5968L221.169 48.4459L214.98 46.5534L213.393 50.489L213.284 50.4776C209.824 50.1271 207.489 51.0279 207.466 51.0373L207.353 51.0817L205.041 47.5128L199.332 50.5482L200.999 54.461L200.9 54.5289C198.972 55.8576 197.199 59.0108 197.181 59.0424L197.128 59.1373L192.98 58.252L191.089 64.4413L195.022 66.0283L195.013 66.1366C194.737 69.3107 195.567 71.9385 195.575 71.9647L195.61 72.0724L192.047 74.3813L195.083 80.0889L198.989 78.4265L199.059 78.516C200.808 80.7644 203.546 82.2249 203.573 82.239L203.672 82.2915L202.787 86.4417ZM209.149 88.6948L202.442 86.6449L203.337 82.4463C202.832 82.1637 200.493 80.7913 198.896 78.7865L194.949 80.4663L191.66 74.281L195.262 71.9466C195.109 71.4184 194.486 69.0382 194.71 66.2201L190.728 64.6135L192.777 57.9068L196.977 58.8036C197.29 58.2614 198.857 55.6363 200.633 54.356L198.955 50.4144L205.141 47.1252L207.471 50.7211C207.982 50.5422 210.124 49.8815 213.203 50.1735L214.807 46.1921L221.514 48.2427L220.619 52.4414C221.132 52.7259 223.524 54.1179 225.062 56.1005L229.007 54.4206L232.297 60.6079L228.697 62.939C228.865 63.4658 229.535 65.7922 229.249 68.6682L233.229 70.2734L231.18 76.9794L226.983 76.0847C226.723 76.5785 225.51 78.74 223.321 80.5242L225.002 84.4719L218.814 87.7624L216.484 84.1665C215.959 84.3528 213.687 85.0707 210.753 84.7161L209.149 88.6948Z" fill="#312113"/>
<path d="M211.979 55.4197C205.349 55.4197 199.954 60.8131 199.954 67.4432C199.954 74.0732 205.349 79.4673 211.979 79.4673C218.609 79.4673 224.002 74.0732 224.002 67.4432C224.002 60.8131 218.609 55.4197 211.979 55.4197ZM211.979 79.762C205.186 79.762 199.66 74.236 199.66 67.4432C199.66 60.651 205.186 55.125 211.979 55.125C218.771 55.125 224.297 60.651 224.297 67.4432C224.297 74.236 218.771 79.762 211.979 79.762Z" fill="#312113"/>
<path d="M77.0508 123.189C70.778 121.272 67.248 114.632 69.1641 108.358C71.0821 102.087 77.7215 98.5555 83.9943 100.473C90.2671 102.391 93.799 109.03 91.881 115.302C89.9636 121.576 83.3235 125.107 77.0508 123.189ZM99.1656 120.97L101.089 114.677L97.2254 113.119C97.3814 111.155 97.181 109.22 96.6697 107.373L100.167 105.11L97.0787 99.3036L93.2467 100.936C92.0021 99.4799 90.5092 98.2326 88.7937 97.2625L89.6622 93.1883L83.3686 91.2649L81.8112 95.1279C79.8535 94.9751 77.9112 95.1723 76.0652 95.6836L73.8007 92.1879L67.9955 95.2745L69.6276 99.1072C68.1717 100.352 66.9245 101.844 65.9543 103.561L61.8801 102.691L59.9574 108.985L63.8197 110.543C63.667 112.5 63.8641 114.442 64.3754 116.288L60.8797 118.554L63.9663 124.358L67.7984 122.727C69.0436 124.182 70.5432 125.432 72.252 126.4L71.3828 130.474L77.6771 132.397L79.2345 128.533C81.199 128.69 83.1338 128.489 84.9792 127.978L87.245 131.475L93.0502 128.387L91.4188 124.555C92.874 123.31 94.124 121.811 95.0907 120.102L99.1656 120.97Z" fill="white"/>
<path d="M62.5287 110.179L59.7792 109.07L61.2296 104.324L61.5075 104.408L60.1351 108.9L62.6377 109.909L62.5287 110.179Z" fill="#312113"/>
<path d="M71.5253 130.505L71.2408 130.443L72.0858 126.479C70.1253 125.483 68.6197 123.825 68.6042 123.809L68.8202 123.614C68.8357 123.63 70.3574 125.305 72.3158 126.27L72.4174 126.319L71.5253 130.505Z" fill="#312113"/>
<path d="M87.2135 121.818L87.0466 121.58C94.6918 116.212 91.6261 108.034 91.5945 107.952L91.8656 107.847C91.8979 107.931 95.0437 116.321 87.2135 121.818Z" fill="#312113"/>
<path d="M97.1231 110.557C96.9085 108.841 96.5324 107.425 96.5291 107.411L96.5015 107.309L97.7864 106.477L97.9439 106.721L96.8365 107.438C96.9267 107.798 97.228 109.052 97.4117 110.521L97.1231 110.557Z" fill="#312113"/>
<path d="M73.2632 129.908L79.3079 131.755L80.8586 127.909L80.9689 127.923C84.2123 128.343 86.6194 127.387 86.6436 127.377L86.7539 127.332L89.0137 130.819L94.5882 127.854L92.9648 124.041L93.0503 123.973C95.4742 122.032 96.673 119.591 96.6852 119.567L96.7343 119.465L100.792 120.33L102.64 114.286L98.7956 112.736L98.807 112.629C99.1488 109.457 98.2675 106.968 98.2587 106.944L98.2197 106.836L101.703 104.58L98.7384 99.0047L94.9225 100.63L94.8546 100.541C93.2205 98.3757 90.4749 96.9205 90.4474 96.9064L90.3505 96.8559L91.215 92.8019L85.1709 90.9538L83.6216 94.7973L83.5139 94.7865C80.1401 94.4441 77.8547 95.3234 77.8319 95.3328L77.7222 95.3759L75.4644 91.8903L69.8893 94.8551L71.5167 98.6757L71.4198 98.743C69.5374 100.04 67.8064 103.119 67.789 103.15L67.7371 103.243L63.6858 102.379L61.8391 108.423L65.6799 109.972L65.6711 110.078C65.4013 113.178 66.212 115.744 66.2201 115.77L66.2537 115.875L62.7749 118.13L65.7391 123.704L69.5543 122.08L69.6222 122.168C71.3297 124.361 74.0045 125.79 74.0308 125.804L74.1277 125.854L73.2632 129.908ZM79.4761 132.108L72.9261 130.106L73.8007 126.006C73.3069 125.73 71.0229 124.39 69.4634 122.431L65.6092 124.072L62.3968 118.032L65.914 115.752C65.7653 115.236 65.1565 112.912 65.3751 110.16L61.4866 108.591L63.488 102.042L67.5898 102.917C67.8946 102.388 69.4251 99.8241 71.1601 98.5735L69.5206 94.7246L75.5626 91.5122L77.8379 95.024C78.3357 94.8491 80.428 94.2046 83.4352 94.4892L85.0021 90.6013L91.552 92.6034L90.6774 96.7032C91.1786 96.9817 93.5145 98.3407 95.016 100.278L98.8689 98.6367L102.082 104.679L98.5662 106.955C98.7303 107.47 99.3843 109.743 99.1051 112.551L102.992 114.117L100.991 120.667L96.8924 119.793C96.6387 120.276 95.4533 122.387 93.3153 124.129L94.9568 127.984L88.9155 131.197L86.6396 127.686C86.1263 127.868 83.9075 128.569 81.0422 128.222L79.4761 132.108Z" fill="#312113"/>
<path d="M82.2389 99.6124C75.7644 99.6124 70.4967 104.88 70.4967 111.355C70.4967 117.829 75.7644 123.097 82.2389 123.097C88.7135 123.097 93.9812 117.829 93.9812 111.355C93.9812 104.88 88.7135 99.6124 82.2389 99.6124ZM82.2389 123.385C75.6056 123.385 70.2087 117.988 70.2087 111.355C70.2087 104.721 75.6056 99.3245 82.2389 99.3245C88.8723 99.3245 94.2692 104.721 94.2692 111.355C94.2692 117.988 88.8723 123.385 82.2389 123.385Z" fill="#312113"/>
<path d="M179.799 148.025H180.557C181.076 148.025 181.498 147.604 181.498 147.084V119.535H178.857V147.084C178.857 147.604 179.279 148.025 179.799 148.025Z" fill="white"/>
<path d="M176.545 117.924H183.81C184.174 117.924 184.503 118.135 184.655 118.465L184.688 118.538C184.972 119.155 184.522 119.857 183.844 119.857H176.511C175.833 119.857 175.383 119.155 175.667 118.538L175.7 118.465C175.852 118.135 176.182 117.924 176.545 117.924Z" fill="white"/>
<path d="M176.545 118.092C176.248 118.092 175.977 118.266 175.852 118.535L175.819 118.608C175.71 118.846 175.728 119.118 175.869 119.338C176.01 119.558 176.25 119.689 176.511 119.689H183.844C184.105 119.689 184.345 119.558 184.486 119.338C184.627 119.118 184.646 118.846 184.536 118.608L184.503 118.535C184.379 118.266 184.107 118.092 183.81 118.092H176.545ZM175.587 119.519C175.384 119.202 175.357 118.81 175.515 118.468L175.548 118.395C175.726 118.008 176.118 117.757 176.545 117.757H183.81C184.237 117.757 184.628 118.008 184.807 118.395L184.841 118.468C184.998 118.81 184.971 119.202 184.768 119.519C184.565 119.835 184.22 120.025 183.844 120.025H176.511C176.136 120.025 175.79 119.835 175.587 119.519Z" fill="#312113"/>
<path d="M203.534 101.575C202.193 109.398 197.911 118.49 179.98 118.49C162.049 118.49 155.394 111.466 155.394 109.617C155.394 107.768 162.524 110.441 166.439 105.704C170.354 100.967 163.974 83.8288 163.974 76.2495C163.974 68.6709 184.863 69.0403 190.964 69.0403C194.095 69.0403 199.695 68.5821 203.349 74.5865C206.8 80.2551 205.013 92.9486 203.534 101.575Z" fill="#F2CD5D"/>
<path d="M197.364 106.393C197.143 103.951 193.812 103.519 193.067 101.209C192.263 98.7131 194.504 95.9306 194.241 93.3405C193.97 90.671 192.577 90.5855 192.321 87.9113C192.075 85.3528 194.939 83.8324 194.142 81.3614C193.493 79.3478 191.13 69.1643 182.472 69.1643C174.234 69.531 163.974 70.9384 163.974 76.2498C163.974 83.829 170.354 100.967 166.439 105.704C162.524 110.441 155.394 107.768 155.394 109.617C155.394 111.466 162.049 118.49 179.98 118.49C181.236 118.49 197.567 108.627 197.364 106.393Z" fill="#CC9F0E"/>
<path d="M178.5 114.091C182.741 114.091 186.082 113.423 188.554 112.63C193.975 110.892 196.515 108.187 196.54 108.159L196.294 107.932C196.27 107.959 193.775 110.611 188.427 112.319C183.489 113.898 175.038 114.971 162.823 111.121L162.722 111.44C168.934 113.398 174.183 114.091 178.5 114.091Z" fill="#312113"/>
<path d="M193.866 100.567C193.866 100.938 194.167 101.239 194.538 101.239C194.909 101.239 195.21 100.938 195.21 100.567C195.21 100.196 194.909 99.8944 194.538 99.8944C194.167 99.8944 193.866 100.196 193.866 100.567ZM193.531 100.567C193.531 100.011 193.982 99.5593 194.538 99.5593C195.093 99.5593 195.545 100.011 195.545 100.567C195.545 101.122 195.093 101.574 194.538 101.574C193.982 101.574 193.531 101.122 193.531 100.567Z" fill="#312113"/>
<path d="M183.853 100.567C183.853 100.938 184.154 101.239 184.525 101.239C184.895 101.239 185.197 100.938 185.197 100.567C185.197 100.196 184.895 99.8944 184.525 99.8944C184.154 99.8944 183.853 100.196 183.853 100.567ZM183.518 100.567C183.518 100.011 183.969 99.5593 184.525 99.5593C185.08 99.5593 185.531 100.011 185.531 100.567C185.531 101.122 185.08 101.574 184.525 101.574C183.969 101.574 183.518 101.122 183.518 100.567Z" fill="#312113"/>
<path d="M173.839 100.567C173.839 100.938 174.141 101.239 174.512 101.239C174.882 101.239 175.183 100.938 175.183 100.567C175.183 100.196 174.882 99.8944 174.512 99.8944C174.141 99.8944 173.839 100.196 173.839 100.567ZM173.504 100.567C173.504 100.011 173.956 99.5593 174.512 99.5593C175.067 99.5593 175.519 100.011 175.519 100.567C175.519 101.122 175.067 101.574 174.512 101.574C173.956 101.574 173.504 101.122 173.504 100.567Z" fill="#312113"/>
<path d="M178.784 105.327C178.784 105.698 179.086 105.999 179.456 105.999C179.827 105.999 180.128 105.698 180.128 105.327C180.128 104.956 179.827 104.655 179.456 104.655C179.086 104.655 178.784 104.956 178.784 105.327ZM178.449 105.327C178.449 104.772 178.901 104.32 179.456 104.32C180.011 104.32 180.463 104.772 180.463 105.327C180.463 105.882 180.011 106.334 179.456 106.334C178.901 106.334 178.449 105.882 178.449 105.327Z" fill="#312113"/>
<path d="M189.521 94.4126C189.521 94.7826 189.823 95.084 190.193 95.084C190.564 95.084 190.865 94.7826 190.865 94.4126C190.865 94.0419 190.564 93.7405 190.193 93.7405C189.823 93.7405 189.521 94.0419 189.521 94.4126ZM189.186 94.4126C189.186 93.8569 189.638 93.4055 190.193 93.4055C190.749 93.4055 191.201 93.8569 191.201 94.4126C191.201 94.9676 190.749 95.4191 190.193 95.4191C189.638 95.4191 189.186 94.9676 189.186 94.4126Z" fill="#312113"/>
<path d="M200.12 94.4126C200.12 94.7826 200.421 95.084 200.792 95.084C201.163 95.084 201.464 94.7826 201.464 94.4126C201.464 94.0419 201.163 93.7405 200.792 93.7405C200.421 93.7405 200.12 94.0419 200.12 94.4126ZM199.785 94.4126C199.785 93.8569 200.237 93.4055 200.792 93.4055C201.348 93.4055 201.799 93.8569 201.799 94.4126C201.799 94.9676 201.348 95.4191 200.792 95.4191C200.237 95.4191 199.785 94.9676 199.785 94.4126Z" fill="#312113"/>
<path d="M179.508 94.4126C179.508 94.7826 179.81 95.084 180.18 95.084C180.551 95.084 180.852 94.7826 180.852 94.4126C180.852 94.0419 180.551 93.7405 180.18 93.7405C179.81 93.7405 179.508 94.0419 179.508 94.4126ZM179.173 94.4126C179.173 93.8569 179.625 93.4055 180.18 93.4055C180.735 93.4055 181.187 93.8569 181.187 94.4126C181.187 94.9676 180.735 95.4191 180.18 95.4191C179.625 95.4191 179.173 94.9676 179.173 94.4126Z" fill="#312113"/>
<path d="M169.495 94.4126C169.495 94.7826 169.796 95.084 170.167 95.084C170.537 95.084 170.839 94.7826 170.839 94.4126C170.839 94.0419 170.537 93.7405 170.167 93.7405C169.796 93.7405 169.495 94.0419 169.495 94.4126ZM169.16 94.4126C169.16 93.8569 169.612 93.4055 170.167 93.4055C170.722 93.4055 171.174 93.8569 171.174 94.4126C171.174 94.9676 170.722 95.4191 170.167 95.4191C169.612 95.4191 169.16 94.9676 169.16 94.4126Z" fill="#312113"/>
<path d="M193.866 88.2581C193.866 88.6288 194.167 88.9302 194.538 88.9302C194.909 88.9302 195.21 88.6288 195.21 88.2581C195.21 87.8874 194.909 87.586 194.538 87.586C194.167 87.586 193.866 87.8874 193.866 88.2581ZM193.531 88.2581C193.531 87.7024 193.982 87.251 194.538 87.251C195.093 87.251 195.545 87.7024 195.545 88.2581C195.545 88.8131 195.093 89.2652 194.538 89.2652C193.982 89.2652 193.531 88.8131 193.531 88.2581Z" fill="#312113"/>
<path d="M183.853 88.2581C183.853 88.6288 184.154 88.9302 184.525 88.9302C184.895 88.9302 185.197 88.6288 185.197 88.2581C185.197 87.8874 184.895 87.586 184.525 87.586C184.154 87.586 183.853 87.8874 183.853 88.2581ZM183.518 88.2581C183.518 87.7024 183.969 87.251 184.525 87.251C185.08 87.251 185.531 87.7024 185.531 88.2581C185.531 88.8131 185.08 89.2652 184.525 89.2652C183.969 89.2652 183.518 88.8131 183.518 88.2581Z" fill="#312113"/>
<path d="M173.839 88.2581C173.839 88.6288 174.141 88.9302 174.512 88.9302C174.882 88.9302 175.183 88.6288 175.183 88.2581C175.183 87.8874 174.882 87.586 174.512 87.586C174.141 87.586 173.839 87.8874 173.839 88.2581ZM173.504 88.2581C173.504 87.7024 173.956 87.251 174.512 87.251C175.067 87.251 175.519 87.7024 175.519 88.2581C175.519 88.8131 175.067 89.2652 174.512 89.2652C173.956 89.2652 173.504 88.8131 173.504 88.2581Z" fill="#312113"/>
<path d="M189.521 82.1038C189.521 82.4745 189.823 82.7759 190.193 82.7759C190.564 82.7759 190.865 82.4745 190.865 82.1038C190.865 81.7331 190.564 81.4317 190.193 81.4317C189.823 81.4317 189.521 81.7331 189.521 82.1038ZM189.186 82.1038C189.186 81.5481 189.638 81.0967 190.193 81.0967C190.749 81.0967 191.201 81.5481 191.201 82.1038C191.201 82.6588 190.749 83.1109 190.193 83.1109C189.638 83.1109 189.186 82.6588 189.186 82.1038Z" fill="#312113"/>
<path d="M200.12 82.1038C200.12 82.4745 200.421 82.7759 200.792 82.7759C201.163 82.7759 201.464 82.4745 201.464 82.1038C201.464 81.7331 201.163 81.4317 200.792 81.4317C200.421 81.4317 200.12 81.7331 200.12 82.1038ZM199.785 82.1038C199.785 81.5481 200.237 81.0967 200.792 81.0967C201.348 81.0967 201.799 81.5481 201.799 82.1038C201.799 82.6588 201.348 83.1109 200.792 83.1109C200.237 83.1109 199.785 82.6588 199.785 82.1038Z" fill="#312113"/>
<path d="M179.508 82.1038C179.508 82.4745 179.81 82.7759 180.18 82.7759C180.551 82.7759 180.852 82.4745 180.852 82.1038C180.852 81.7331 180.551 81.4317 180.18 81.4317C179.81 81.4317 179.508 81.7331 179.508 82.1038ZM179.173 82.1038C179.173 81.5481 179.625 81.0967 180.18 81.0967C180.735 81.0967 181.187 81.5481 181.187 82.1038C181.187 82.6588 180.735 83.1109 180.18 83.1109C179.625 83.1109 179.173 82.6588 179.173 82.1038Z" fill="#312113"/>
<path d="M169.495 82.1038C169.495 82.4745 169.796 82.7759 170.167 82.7759C170.537 82.7759 170.839 82.4745 170.839 82.1038C170.839 81.7331 170.537 81.4317 170.167 81.4317C169.796 81.4317 169.495 81.7331 169.495 82.1038ZM169.16 82.1038C169.16 81.5481 169.612 81.0967 170.167 81.0967C170.722 81.0967 171.174 81.5481 171.174 82.1038C171.174 82.6588 170.722 83.1109 170.167 83.1109C169.612 83.1109 169.16 82.6588 169.16 82.1038Z" fill="#312113"/>
<path d="M193.866 74.5008C193.866 74.8715 194.167 75.1729 194.538 75.1729C194.909 75.1729 195.21 74.8715 195.21 74.5008C195.21 74.1308 194.909 73.8294 194.538 73.8294C194.167 73.8294 193.866 74.1308 193.866 74.5008ZM193.531 74.5008C193.531 73.9458 193.982 73.4944 194.538 73.4944C195.093 73.4944 195.545 73.9458 195.545 74.5008C195.545 75.0565 195.093 75.5086 194.538 75.5086C193.982 75.5086 193.531 75.0565 193.531 74.5008Z" fill="#312113"/>
<path d="M183.853 74.5008C183.853 74.8715 184.154 75.1729 184.525 75.1729C184.895 75.1729 185.197 74.8715 185.197 74.5008C185.197 74.1308 184.895 73.8294 184.525 73.8294C184.154 73.8294 183.853 74.1308 183.853 74.5008ZM183.518 74.5008C183.518 73.9458 183.969 73.4944 184.525 73.4944C185.08 73.4944 185.531 73.9458 185.531 74.5008C185.531 75.0565 185.08 75.5086 184.525 75.5086C183.969 75.5086 183.518 75.0565 183.518 74.5008Z" fill="#312113"/>
<path d="M173.839 74.5008C173.839 74.8715 174.141 75.1729 174.512 75.1729C174.882 75.1729 175.183 74.8715 175.183 74.5008C175.183 74.1308 174.882 73.8294 174.512 73.8294C174.141 73.8294 173.839 74.1308 173.839 74.5008ZM173.504 74.5008C173.504 73.9458 173.956 73.4944 174.512 73.4944C175.067 73.4944 175.519 73.9458 175.519 74.5008C175.519 75.0565 175.067 75.5086 174.512 75.5086C173.956 75.5086 173.504 75.0565 173.504 74.5008Z" fill="#312113"/>
<path d="M179.745 119.911H179.41V146.806H179.745V119.911Z" fill="#312113"/>
<path d="M173.343 150.925H173.678V149.05C173.678 147.916 174.6 146.994 175.735 146.994H184.614C185.749 146.994 186.671 147.916 186.671 149.05V150.619H187.006V149.05C187.006 147.731 185.933 146.659 184.614 146.659H175.735C174.416 146.659 173.343 147.731 173.343 149.05V150.925Z" fill="#312113"/>
<path d="M169.928 150.925H170.263V149.05C170.263 147.916 171.185 146.994 172.319 146.994H188.03C189.164 146.994 190.087 147.916 190.087 149.05V150.619H190.422V149.05C190.422 147.731 189.349 146.659 188.03 146.659H172.319C171 146.659 169.928 147.731 169.928 149.05V150.925Z" fill="#312113"/>
<path d="M172.402 150.598C172.402 151.212 172.9 151.71 173.514 151.71C174.128 151.71 174.626 151.212 174.626 150.598C174.626 149.983 174.128 149.486 173.514 149.486C172.9 149.486 172.402 149.983 172.402 150.598Z" fill="#312113"/>
<path d="M169.045 150.598C169.045 151.212 169.543 151.71 170.157 151.71C170.771 151.71 171.269 151.212 171.269 150.598C171.269 149.983 170.771 149.486 170.157 149.486C169.543 149.486 169.045 149.983 169.045 150.598Z" fill="#312113"/>
<path d="M189.162 150.598C189.162 151.212 189.66 151.71 190.274 151.71C190.888 151.71 191.386 151.212 191.386 150.598C191.386 149.983 190.888 149.486 190.274 149.486C189.66 149.486 189.162 149.983 189.162 150.598Z" fill="#312113"/>
<path d="M185.657 150.598C185.657 151.212 186.155 151.71 186.769 151.71C187.383 151.71 187.881 151.212 187.881 150.598C187.881 149.983 187.383 149.486 186.769 149.486C186.155 149.486 185.657 149.983 185.657 150.598Z" fill="#312113"/>
<path d="M136.654 78.8645C136.654 78.8645 135.592 80.1945 135.238 80.9588C134.884 81.723 134.296 82.8566 134.507 83.4217C134.718 83.9862 134.996 83.4729 135.242 83.191C135.487 82.9098 136.123 82.2828 136.482 81.9841C136.842 81.6847 138.527 81.2265 138.8 80.4899C139.076 79.7498 136.654 78.8645 136.654 78.8645Z" fill="#E6A19B"/>
<path d="M133.65 80.2875C133.157 78.9878 132.733 76.843 132.733 76.843C132.733 76.843 151.275 77.4963 156.485 77.3691C158.149 77.3287 162.592 84.4357 155.73 86.0665C150.317 87.3528 140.084 80.1873 135.524 80.7107C134.653 80.8109 133.743 80.5351 133.65 80.2875Z" fill="#E6A19B"/>
<path d="M138.305 77.8946C138.305 77.8946 136.865 80.4672 134.808 79.7124C132.597 78.9004 126.981 80.0831 127.42 78.4678C127.742 77.2804 128.6 76.2888 132.68 76.8303C135.718 77.2333 138.305 77.8946 138.305 77.8946Z" fill="#E6A19B"/>
<path d="M127.42 78.4676C127.317 79.3462 127.162 80.9224 127.61 81.8771C127.874 82.4382 130.255 83.3908 131.765 83.2159C133.43 83.0221 134.704 83.7366 135.027 83.1614C135.289 82.6985 134.109 82.4005 133.7 81.5986C132.825 79.879 135.245 79.7727 135.245 79.7727C135.245 79.7727 132.133 77.2983 130.882 77.1698C129.962 77.075 127.531 77.517 127.42 78.4676Z" fill="#E6A19B"/>
<path d="M131.742 83.1075L131.574 79.5439C131.574 79.5439 131.287 81.8414 131.742 83.1075Z" fill="#312113"/>
<path d="M128.905 82.7919L128.375 79.2646C128.375 79.2646 128.323 81.5789 128.905 82.7919Z" fill="#312113"/>
<path d="M130.412 83.1763L129.725 79.0315C129.725 79.0315 129.812 81.9438 130.412 83.1763Z" fill="#312113"/>
<path d="M162.734 56.289C165.102 56.5507 168.737 59.4099 168.732 64.5014C168.727 69.5921 165.968 81.2792 162.742 89.2171C162.742 89.2171 156.119 85.4012 151.249 77.3692C151.249 77.3692 152.477 67.0276 154.548 62.6822C156.62 58.3376 160.121 56.0004 162.734 56.289Z" fill="white"/>
<path d="M156.709 140.623L151.052 143.014L146.52 136.277L153.605 133.281L156.709 140.623Z" fill="#E6A19B"/>
<path d="M149.25 140.919C149.25 140.919 150.524 139.828 152.514 140.801C154.504 141.775 154.75 140.303 155.098 139.945C155.447 139.588 155.958 139.24 156.749 139.247C156.749 139.247 158.577 146.222 158.06 151.649H139.258C139.258 151.649 138.677 149.76 140.301 148.888C141.924 148.015 149.047 145.956 149.992 144.115C150.937 142.273 149.25 140.919 149.25 140.919Z" fill="#904823"/>
<path d="M154.769 150.317H154.422C154.422 146.627 157.751 145.416 157.784 145.404L157.899 145.733C157.771 145.778 154.769 146.877 154.769 150.317Z" fill="#312113"/>
<path d="M158.178 149.929C158.197 150.606 158.079 151.2 158.06 151.649H139.258C139.258 151.649 138.988 150.767 139.334 149.929H158.178Z" fill="#312113"/>
<path d="M148.288 147.466L146.045 146.851L146.137 146.515L148.302 147.11C148.718 147.026 152.344 146.258 152.706 144.729C153.092 143.093 151.682 141.417 151.667 141.401L151.932 141.175C151.994 141.249 153.472 142.999 153.044 144.809C152.611 146.642 148.502 147.426 148.327 147.459L148.288 147.466Z" fill="#312113"/>
<path d="M150.245 146.341L148.281 145.668L148.395 145.34L150.357 146.012L150.245 146.341Z" fill="#312113"/>
<path d="M151.861 145.16L149.899 144.488L150.012 144.159L151.974 144.831L151.861 145.16Z" fill="#312113"/>
<path d="M131.127 113.998C131.646 118.245 133.131 125.626 134.537 131.14C135.943 136.654 137.814 144.526 137.814 144.526C137.814 144.526 149.928 144.429 156.518 136.385C156.518 136.385 150.51 119.886 149.056 114.943C147.602 110.001 130.197 106.394 131.127 113.998Z" fill="#2043EF"/>
<path d="M168.681 111.079C164.217 110.93 143.7 122.871 135.464 119.402C131.044 117.54 128.316 108.523 134.173 103.9C138.008 100.873 155.935 94.9395 160.394 94.18C164.854 93.4204 176.533 111.343 168.681 111.079Z" fill="#2043EF"/>
<path d="M154.126 138.407C153.294 136.087 152.424 133.82 151.583 131.628C148.735 124.206 146.485 118.345 147.704 115.87C147.973 115.322 148.411 114.955 149.006 114.777C153.101 113.556 167.827 109.008 167.976 108.962L168.078 109.295C167.929 109.34 153.202 113.888 149.105 115.11C148.6 115.261 148.243 115.559 148.015 116.023C146.864 118.362 149.201 124.452 151.907 131.503C152.749 133.697 153.62 135.966 154.453 138.289L154.126 138.407Z" fill="#312113"/>
<path d="M138.251 143.464L137.909 143.407C137.92 143.342 138.994 136.746 138.779 131.232L139.127 131.219C139.343 136.768 138.263 143.398 138.251 143.464Z" fill="#312113"/>
<path d="M175.873 140.623L170.217 143.014L165.684 136.277L172.769 133.281L175.873 140.623Z" fill="#E6A19B"/>
<path d="M168.414 140.919C168.414 140.919 169.688 139.828 171.679 140.801C173.669 141.775 173.915 140.303 174.263 139.945C174.612 139.588 175.122 139.24 175.914 139.247C175.914 139.247 177.742 146.222 177.225 151.649H158.423C158.423 151.649 157.842 149.76 159.465 148.888C161.089 148.015 168.211 145.956 169.156 144.115C170.102 142.273 168.414 140.919 168.414 140.919Z" fill="#904823"/>
<path d="M173.934 150.317H173.586C173.586 146.627 176.914 145.416 176.949 145.404L177.064 145.733C176.936 145.778 173.934 146.877 173.934 150.317Z" fill="#312113"/>
<path d="M177.343 149.929C177.362 150.606 177.244 151.2 177.225 151.649H158.423C158.423 151.649 158.152 150.767 158.499 149.929H177.343Z" fill="#312113"/>
<path d="M167.453 147.466L165.209 146.851L165.301 146.515L167.467 147.11C167.883 147.026 171.509 146.258 171.87 144.729C172.256 143.093 170.846 141.417 170.831 141.401L171.096 141.175C171.159 141.249 172.636 142.999 172.209 144.809C171.776 146.642 167.667 147.426 167.493 147.459L167.453 147.466Z" fill="#312113"/>
<path d="M169.409 146.341L167.447 145.668L167.559 145.34L169.522 146.012L169.409 146.341Z" fill="#312113"/>
<path d="M171.027 145.16L169.063 144.488L169.177 144.159L171.139 144.831L171.027 145.16Z" fill="#312113"/>
<path d="M150.292 113.998C150.81 118.245 152.296 125.626 153.702 131.14C155.107 136.654 156.978 144.526 156.978 144.526C156.978 144.526 169.093 144.429 175.683 136.385C175.683 136.385 169.674 119.886 168.221 114.943C166.767 110.001 149.361 106.394 150.292 113.998Z" fill="#2043EF"/>
<path d="M184.747 111.532C180.504 112.581 162.865 122.871 154.628 119.402C150.208 117.54 147.481 108.523 153.337 103.9C157.172 100.873 171.204 94.1799 185.329 94.1799C194.584 94.1799 192.21 109.686 184.747 111.532Z" fill="#2043EF"/>
<path d="M173.29 138.407C172.458 136.086 171.588 133.819 170.747 131.626C167.9 124.205 165.65 118.345 166.868 115.87C167.137 115.322 167.576 114.954 168.171 114.777C172.257 113.558 187.075 107.292 187.223 107.229L187.359 107.548C187.21 107.612 172.375 113.885 168.27 115.11C167.765 115.261 167.408 115.559 167.18 116.023C166.029 118.362 168.366 124.451 171.071 131.502C171.913 133.696 172.784 135.965 173.617 138.289L173.29 138.407Z" fill="#312113"/>
<path d="M166.015 132.696C165.987 132.654 163.156 128.475 160.025 125.787L160.251 125.524C163.419 128.243 166.276 132.459 166.304 132.502L166.015 132.696Z" fill="#312113"/>
<path d="M150.085 108.819C149.965 102.726 162.053 98.5879 162.568 98.415L162.678 98.744C162.555 98.7857 150.317 102.974 150.432 108.812L150.085 108.819Z" fill="#312113"/>
<path d="M153.911 67.6962C153.053 75.2963 155.42 92.5895 153.557 95.9613C153.557 95.9613 157.439 99.644 164.516 98.4021C171.968 97.0936 183.802 105.286 192.442 103.845C192.442 103.845 186.245 62.0894 178.183 57.4017C170.122 52.7139 155.471 53.896 153.911 67.6962Z" fill="white"/>
<path d="M160.848 50.1593L162.232 56.323C162.6 56.8761 164.553 59.7407 170.019 55.0495L167.643 46.1355C167.643 46.1355 165.116 47.9237 160.848 50.1593Z" fill="#E6A19B"/>
<path d="M161.487 54.9993C161.487 54.9993 167.349 55.0194 168.478 51.1201C168.478 51.1201 168.05 48.4937 168.035 48.5098C163.961 51.9873 162.125 52.1448 161.487 54.9993Z" fill="#312113"/>
<path d="M162.415 55.2104C164.465 54.8478 167.735 51.4167 168.247 49.3985C168.43 48.6793 168.011 46.9221 167.596 46.1094C166.29 43.5633 165.195 41.2388 162.981 40.8551C162.048 40.6957 159.876 41.3385 159.095 41.6433C156.519 42.655 156.356 44.8903 156.802 47.619C157.301 50.6801 158.8 55.8488 162.415 55.2104Z" fill="#E6A19B"/>
<path d="M160.272 50.8833C160.067 50.8632 159.031 50.7421 158.801 50.3048C158.751 50.2113 158.713 50.0612 158.815 49.8762C159.397 48.8146 159.025 47.5808 158.943 47.3413C158.797 47.2296 158.174 46.8219 157.372 47.2525L157.208 46.9464C158.326 46.3456 159.197 47.0991 159.205 47.1072L159.237 47.1348L159.252 47.1738C159.276 47.2363 159.842 48.7272 159.12 50.0437C159.087 50.1029 159.1 50.1278 159.108 50.1426C159.213 50.3424 159.885 50.4965 160.306 50.5375L160.272 50.8833Z" fill="#312113"/>
<path d="M166.124 46.6185C166.304 47.6774 167.308 48.3912 168.368 48.2116C169.427 48.032 170.141 47.0275 169.961 45.9679C169.781 44.9084 168.777 44.1952 167.717 44.3749C166.658 44.5545 165.945 45.5589 166.124 46.6185Z" fill="#E6A19B"/>
<path d="M168.433 47.6338C168.347 47.6338 168.26 47.6143 168.174 47.5672C167.884 47.4085 167.969 47.0916 168.026 46.8817C168.094 46.6267 168.1 46.5319 168.006 46.4693C167.951 46.4323 167.88 46.402 167.808 46.3697C167.608 46.2803 167.382 46.1793 167.319 45.9553C167.279 45.8127 167.318 45.66 167.436 45.4891C167.835 44.9146 168.501 45.0525 168.529 45.0585L168.455 45.3983C168.436 45.3942 167.986 45.3061 167.722 45.6869C167.67 45.7622 167.645 45.8275 167.654 45.8618C167.672 45.9284 167.833 45.9997 167.95 46.0522C168.04 46.0926 168.129 46.1336 168.198 46.1793C168.517 46.3906 168.423 46.7404 168.361 46.9719C168.306 47.1784 168.301 47.241 168.34 47.2625C168.557 47.3809 168.875 47.0115 168.877 47.0075L169.147 47.2268C169.006 47.4004 168.728 47.6338 168.433 47.6338Z" fill="#312113"/>
<path d="M160.372 52.4205C160.125 52.4205 159.965 52.405 159.944 52.403L159.98 52.0572C159.997 52.0585 161.615 52.2133 162.784 51.4551L162.974 51.7471C162.073 52.3303 160.968 52.4205 160.372 52.4205Z" fill="#312113"/>
<path d="M162.481 47.3492C162.489 47.3741 162.498 47.3997 162.502 47.4266C162.55 47.7078 162.361 47.9749 162.079 48.022C161.798 48.0698 161.531 47.8807 161.484 47.5995C161.463 47.4797 161.488 47.3634 161.542 47.2651C161.85 47.3364 162.166 47.3634 162.481 47.3492Z" fill="#312113"/>
<path d="M158.79 47.975C158.799 47.9999 158.807 48.0254 158.811 48.0523C158.859 48.3335 158.669 48.6006 158.388 48.6477C158.106 48.6955 157.84 48.5064 157.792 48.2252C157.772 48.1055 157.796 47.9891 157.851 47.8909C158.158 47.9622 158.475 47.9891 158.79 47.975Z" fill="#312113"/>
<path d="M160.914 46.7109L160.592 46.5824C160.608 46.5394 161.021 45.537 163.06 46.1862L162.954 46.5172C161.253 45.9749 160.917 46.7035 160.914 46.7109Z" fill="#312113"/>
<path d="M163.932 62.033C161.482 62.033 160.257 59.8075 160.205 59.7127L160.512 59.5479C160.523 59.5694 161.693 61.6859 163.932 61.6859V62.033Z" fill="#312113"/>
<path d="M163.671 96.3629L163.618 96.0198C163.688 96.009 170.633 94.8667 172.064 88.6458L172.403 88.7245C170.919 95.1768 163.743 96.3521 163.671 96.3629Z" fill="black"/>
<path d="M165.168 44.5707L166.062 46.7107C166.529 46.6287 166.336 46.702 166.789 46.5479C166.403 44.2666 168.377 44.3682 168.377 44.3682C169.646 41.4174 166.502 37.4335 164.531 37.9395C164.531 37.9395 162.473 35.5275 158.46 37.4466C154.446 39.3659 155.307 41.9007 155.307 41.9007C155.307 41.9007 154.213 42.5906 154.722 44.5842C155.232 46.5769 156.967 48.472 156.967 48.472L156.661 46.6966C156.661 46.6966 160.66 45.4527 162.378 42.5079C163.309 44.6615 165.168 44.5707 165.168 44.5707Z" fill="#312113"/>
<path d="M178.225 58.515C180.196 59.8538 182.567 63.1489 180.182 67.647C177.798 72.145 171.397 81.7648 164.834 87.2726C164.834 87.2726 163.3 78.6681 157.319 72.1026C157.319 72.1026 164.494 62.24 168.357 59.3674C172.22 56.4947 176.05 57.0383 178.225 58.515Z" fill="white"/>
<path d="M167.672 78.2718C166.685 78.2718 166.028 78.105 166.009 78.0996L166.099 77.7639C166.151 77.7781 171.225 79.0569 174.349 74.1802L174.641 74.3679C172.514 77.6872 169.518 78.2718 167.672 78.2718Z" fill="black"/>
<path d="M157.468 71.6521C156.806 71.9582 157.896 75.7256 159.901 80.0669C161.907 84.4089 164.068 87.6805 164.73 87.3751C165.392 87.0696 164.303 83.3022 162.298 78.9602C160.292 74.6189 158.13 71.3466 157.468 71.6521Z" fill="black"/>
<path d="M141.374 78.5418C141.374 78.5418 137.684 76.8398 137.666 74.5591C137.647 72.1069 134.346 68.4142 134.346 68.4142C134.346 68.4142 136.736 67.3997 139.659 70.5071C142.583 73.6152 144.437 74.1346 144.437 74.1346L141.374 78.5418Z" fill="#E6A19B"/>
<path d="M134.537 68.3333C134.537 68.3333 131.253 69.892 128.687 71.5894C128.336 71.8208 128.747 72.4761 129.165 72.433C130.793 72.2642 134.203 69.8658 134.203 69.8658C134.203 69.8658 131.354 72.6786 131.555 73.1502C131.67 73.42 132.643 74.4177 133.455 75.2229C134.036 75.7988 134.174 75.5869 134.855 75.1335C135.719 74.5596 136.485 74.2508 136.626 74.3053C136.907 74.415 138.094 76.1621 138.475 76.442C138.475 76.442 139.92 72.581 139.392 71.4192C138.784 70.0824 134.537 68.3333 134.537 68.3333Z" fill="#E6A19B"/>
<path d="M133.151 74.9363L136.062 72.3293C136.062 72.3293 134.124 73.8511 133.151 74.9363Z" fill="#312113"/>
<path d="M132.32 74.085L135.513 70.7468C135.513 70.7468 133.183 72.9104 132.32 74.085Z" fill="#312113"/>
<path d="M143.609 74.0485L141.107 78.4133C144.388 79.9089 154.718 81.3203 160.236 80.7861C161.253 80.6866 162.18 80.5803 162.964 80.4625C162.753 79.9728 162.532 79.4716 162.296 78.9609C160.867 75.8649 159.357 73.3084 158.369 72.2112C158.025 72.3538 157.668 72.4984 157.303 72.6478C151.321 75.139 143.609 74.0485 143.609 74.0485Z" fill="#E6A19B"/>
<path d="M164.818 87.525L164.643 87.2243C164.795 87.1361 179.858 78.3082 180.494 68.8674L180.841 68.891C180.192 78.5154 164.971 87.4362 164.818 87.525Z" fill="black"/>
<path d="M126.925 95.1098C126.925 95.1885 126.989 95.2531 127.068 95.2531H151.749C151.907 95.2531 152.035 95.1253 152.035 94.9665V94.2776H126.925V95.1098Z" fill="black"/>
<path d="M148.811 93.9869V94.2775H149.692V93.8914H148.907C148.854 93.8914 148.811 93.9337 148.811 93.9869Z" fill="#312113"/>
<path d="M147.788 93.9869V94.2775H148.67V93.8914H147.885C147.832 93.8914 147.788 93.9337 147.788 93.9869Z" fill="#312113"/>
<path d="M146.766 93.9869V94.2775H147.648V93.8914H146.863C146.809 93.8914 146.766 93.9337 146.766 93.9869Z" fill="#312113"/>
<path d="M142.507 93.9869V94.2775H143.389V93.8914H142.603C142.55 93.8914 142.507 93.9337 142.507 93.9869Z" fill="#312113"/>
<path d="M141.485 93.9869V94.2775H142.366V93.8914H141.582C141.528 93.8914 141.485 93.9337 141.485 93.9869Z" fill="#312113"/>
<path d="M129.486 93.9869V94.2775H130.367V93.8914H129.582C129.529 93.8914 129.486 93.9337 129.486 93.9869Z" fill="#312113"/>
<path d="M128.463 93.9869V94.2775H129.345V93.8914H128.56C128.506 93.8914 128.463 93.9337 128.463 93.9869Z" fill="#312113"/>
<path d="M143.56 93.9869V94.2775H146.589V93.8914H143.656C143.603 93.8914 143.56 93.9337 143.56 93.9869Z" fill="#312113"/>
<path d="M125.145 93.9869V94.2775H128.175V93.8914H125.242C125.188 93.8914 125.145 93.9337 125.145 93.9869Z" fill="#312113"/>
<path d="M130.604 93.9869V94.2775H141.123V93.8914H130.7C130.647 93.8914 130.604 93.9337 130.604 93.9869Z" fill="#312113"/>
<path fill-rule="evenodd" clip-rule="evenodd" d="M125.386 93.8914H123.251C123.131 93.8914 123.033 93.9889 123.033 94.1093V94.2775H125.482V93.9869C125.482 93.9337 125.439 93.8914 125.386 93.8914Z" fill="url(#paint0_linear_24_213)"/>
<path fill-rule="evenodd" clip-rule="evenodd" d="M122.435 93.8914H120.301C120.18 93.8914 120.082 93.9889 120.082 94.1093V94.2775H122.532V93.9869C122.532 93.9337 122.489 93.8914 122.435 93.8914Z" fill="url(#paint1_linear_24_213)"/>
<path fill-rule="evenodd" clip-rule="evenodd" d="M119.486 93.8914H117.35C117.23 93.8914 117.132 93.9889 117.132 94.1093V94.2775H119.581V93.9869C119.581 93.9337 119.539 93.8914 119.486 93.8914Z" fill="url(#paint2_linear_24_213)"/>
<path fill-rule="evenodd" clip-rule="evenodd" d="M116.535 93.8914H114.4C114.279 93.8914 114.182 93.9889 114.182 94.1093V94.2775H116.631V93.9869C116.631 93.9337 116.588 93.8914 116.535 93.8914Z" fill="url(#paint3_linear_24_213)"/>
<path fill-rule="evenodd" clip-rule="evenodd" d="M113.061 93.8914H111.944C111.824 93.8914 111.726 93.9889 111.726 94.1093V94.2775H113.157V93.9869C113.157 93.9337 113.114 93.8914 113.061 93.8914Z" fill="url(#paint4_linear_24_213)"/>
<path fill-rule="evenodd" clip-rule="evenodd" d="M111.322 93.8914H110.204C110.084 93.8914 109.986 93.9889 109.986 94.1093V94.2775H111.418V93.9869C111.418 93.9337 111.375 93.8914 111.322 93.8914Z" fill="url(#paint5_linear_24_213)"/>
<path fill-rule="evenodd" clip-rule="evenodd" d="M109.684 93.8914H108.567C108.446 93.8914 108.349 93.9889 108.349 94.1093V94.2775H109.78V93.9869C109.78 93.9337 109.737 93.8914 109.684 93.8914Z" fill="url(#paint6_linear_24_213)"/>
<path d="M128.968 75.8439C128.764 75.0628 128.021 74.456 127.219 74.4674L132.908 95.1359C132.908 95.1359 133.868 94.8123 133.615 93.7587C133.404 92.8794 130.064 80.054 128.968 75.8439Z" fill="black"/>
<path d="M127.026 74.4561H100.738C100.371 74.4561 100.102 74.8018 100.192 75.1584L105.031 94.2721H132.686L127.8 75.0582C127.711 74.7043 127.392 74.4561 127.026 74.4561Z" fill="white"/>
<path d="M103.506 88.9048L103.858 88.816L100.391 75.1194C100.361 75.0037 100.387 74.8846 100.459 74.7911C100.532 74.6969 100.642 74.6431 100.761 74.6431H122.414V74.2798H100.761C100.529 74.2798 100.315 74.3841 100.172 74.5671C100.029 74.75 99.981 74.9835 100.038 75.2082L103.506 88.9048Z" fill="#312113"/>
<path d="M104.982 95.1098C104.982 95.1885 105.045 95.2531 105.124 95.2531H132.249C132.406 95.2531 132.535 95.1253 132.535 94.9665V94.2776H104.982V95.1098Z" fill="white"/>
<path d="M127.704 94.0952H105.154V94.4592H127.704V94.0952Z" fill="#312113"/>
<path d="M132.567 94.459H152.035V94.095H132.849L129.101 79.4343L128.749 79.5245L132.567 94.459Z" fill="#312113"/>
<path d="M9.19707 87.831C16.9332 80.8364 26.9721 99.1562 25.9518 106.357L22.1116 106.332C18.3913 104.507 2.93298 93.4949 9.19707 87.831Z" fill="#BCB469"/>
<path d="M23.9362 106.417C18.3116 95.9612 9.16549 88.0537 9.07373 87.9749L9.32029 87.687C9.4126 87.7664 18.6109 95.7177 24.27 106.237L23.9362 106.417Z" fill="#8C843D"/>
<path d="M19.4779 99.253C19.2051 99.2228 12.7767 98.5043 10.8225 97.7582L10.9575 97.4043C12.8669 98.1336 19.4534 98.8689 19.5198 98.8763L19.4779 99.253Z" fill="#8C843D"/>
<path d="M14.86 93.075L14.5092 92.931C15.4187 90.7116 15.6199 87.1292 15.6216 87.0935L16.0003 87.1137C15.9921 87.263 15.7932 90.7963 14.86 93.075Z" fill="#8C843D"/>
<path d="M22.6306 94.5498C24.9605 98.6953 26.3652 103.439 25.9519 106.357C20.6145 101.639 21.7749 95.3141 22.6306 94.5498Z" fill="black"/>
<path d="M28.9465 83.0523C35.7889 80.2624 33.6203 97.2784 27.5659 106.368L24.7718 106.349C23.3917 104.06 23.4059 85.3114 28.9465 83.0523Z" fill="#BCB469"/>
<path d="M26.1369 106.399L25.7668 106.317C26.8729 101.271 29.8919 84.9869 29.9223 84.8228L30.295 84.8914C30.2646 85.0555 27.2446 101.346 26.1369 106.399Z" fill="#8C843D"/>
<path d="M27.3955 100.861L27.1288 100.591L30.1318 97.6177L30.3987 97.8868L27.3955 100.861Z" fill="#8C843D"/>
<path d="M28.1988 94.1805L24.8175 91.7734L25.0374 91.4646L28.4187 93.8724L28.1988 94.1805Z" fill="#8C843D"/>
<path d="M13.2091 106.298L13.1935 108.647C13.1756 111.315 13.8429 113.942 15.1317 116.278L15.6434 117.205L19.236 151.32L29.0995 151.386L32.6559 117.319L33.18 116.398C34.5 114.081 35.2024 111.462 35.2203 108.795L35.236 106.446L13.2091 106.298Z" fill="white"/>
<path d="M29.7103 112.508L13.3025 112.398L13.3052 112.019L29.7129 112.129L29.7103 112.508Z" fill="#312113"/>
<path d="M32.7515 117.483L26.8795 117.444L26.8822 117.065L32.754 117.104L32.7515 117.483Z" fill="#312113"/>
<path d="M19.6 151.511L19.0654 151.508L15.4589 117.263L14.9658 116.369C13.6643 114.011 12.9859 111.34 13.0039 108.646L13.0209 106.108L35.2373 106.256L35.2346 106.635L13.3972 106.489L13.3829 108.648C13.3652 111.277 14.0275 113.884 15.2977 116.186L15.8318 117.185L19.4066 151.131L19.6021 151.132L19.6 151.511Z" fill="#312113"/>
<path d="M29.9567 106.424L29.604 106.285C31.0302 102.654 36.4676 100.909 36.6982 100.837L36.8117 101.198C36.7569 101.216 31.3165 102.962 29.9567 106.424Z" fill="#312113"/>
<path d="M17.7652 106.309C17.7398 106.257 15.172 101.153 11.5409 100.346L11.6231 99.9756C15.4319 100.823 17.9973 105.923 18.1049 106.141L17.7652 106.309Z" fill="#312113"/>
<path d="M17.8614 106.519C17.764 106.457 8.02252 100.469 0.961209 102.927L0.836548 102.57C8.07096 100.052 17.9627 106.135 18.0618 106.197L17.8614 106.519Z" fill="#312113"/>
<path d="M23.5149 97.7495L23.1371 97.7192C23.1445 97.6264 23.8348 88.384 19.4423 84.2163L19.7031 83.9412C24.2278 88.2347 23.5459 97.3633 23.5149 97.7495Z" fill="#312113"/>
<path d="M187.639 32.1062L187.403 38.9615L198.19 31.6627L217.218 30.9286C219.543 30.8307 221.363 28.747 221.273 26.2839L220.482 4.67495C220.438 3.45706 219.912 2.29548 219.039 1.48817C218.227 0.738519 217.194 0.348052 216.125 0.387139C216.117 0.387408 216.111 0.387611 216.103 0.38788L183.529 1.71429C181.203 1.81231 179.384 3.89616 179.474 6.35906L180.264 27.968C180.309 29.1862 180.835 30.348 181.709 31.1553C182.525 31.9098 183.57 32.2977 184.643 32.2549L187.639 32.1062ZM186.993 39.7034L187.24 32.5109L184.661 32.6389C184.653 32.6394 184.644 32.6396 184.636 32.6399C183.465 32.6828 182.334 32.2564 181.448 31.4376C180.499 30.5613 179.928 29.3019 179.879 27.982L179.09 6.37312C178.992 3.69932 180.976 1.43718 183.513 1.33021H183.514L216.087 0.00393856C217.261 -0.0460472 218.408 0.381153 219.3 1.20595C220.247 2.08228 220.819 3.34154 220.866 4.66089L221.657 26.2698C221.754 28.9437 219.77 31.2059 217.234 31.3126L198.314 32.0426L186.993 39.7034Z" fill="#312113"/>
<path d="M180.527 2.2647L213.1 0.938292C215.525 0.836168 217.586 2.84858 217.68 5.4103L218.47 27.0192C218.563 29.5812 216.655 31.7609 214.23 31.8631L195.257 32.5951L184.203 40.0748L184.445 33.0509L181.656 33.1893C179.232 33.2917 177.17 31.2793 177.077 28.7175L176.287 7.10847C176.193 4.54675 178.101 2.36696 180.527 2.2647Z" fill="#FF8376"/>
<path d="M181.274 33.2979C180.222 33.2979 179.222 32.9108 178.44 32.1963C177.61 31.4372 177.125 30.3999 177.075 29.2757L176.516 16.6371L176.754 16.6267L177.313 29.2653C177.36 30.3258 177.817 31.3042 178.601 32.0203C179.384 32.7365 180.402 33.1037 181.46 33.0553L182.812 32.9934L182.823 33.2313L181.472 33.2934C181.405 33.2964 181.339 33.2979 181.274 33.2979Z" fill="#312113"/>
<path d="M176.185 7.57499C176.071 4.46289 177.718 3.31658 177.788 3.26929L177.921 3.46674C177.905 3.47764 176.314 4.59488 176.423 7.56631L176.185 7.57499Z" fill="#312113"/>
<path d="M192.802 24.0808L192.733 22.9529L187.082 23.1818L187.151 24.3097L192.802 24.0808Z" fill="white"/>
<path d="M198.846 20.4335L198.776 19.3057L186.827 19.7897L186.896 20.9176L198.846 20.4335Z" fill="white"/>
<path d="M194.88 17.192L194.811 16.064L185.223 16.4523L185.292 17.5803L194.88 17.192Z" fill="white"/>
<path d="M195.099 23.9877L195.03 22.8599L193.314 22.9294L193.384 24.0571L195.099 23.9877Z" fill="white"/>
<path d="M206.075 23.5431L206.005 22.4153L200.353 22.6442L200.423 23.772L206.075 23.5431Z" fill="white"/>
<path d="M212.117 19.8959L212.048 18.7681L200.098 19.2521L200.168 20.38L212.117 19.8959Z" fill="white"/>
<path d="M208.152 16.6546L208.083 15.5266L198.495 15.9149L198.564 17.0429L208.152 16.6546Z" fill="white"/>
<path d="M208.371 23.4502L208.301 22.3223L206.586 22.3918L206.656 23.5197L208.371 23.4502Z" fill="white"/>
<path d="M189.961 14.1127L189.891 12.9849L184.24 13.2138L184.309 14.3416L189.961 14.1127Z" fill="white"/>
<path d="M196.003 10.4654L195.934 9.33765L183.985 9.82169L184.054 10.9495L196.003 10.4654Z" fill="white"/>
<path d="M192.257 14.0195L192.187 12.8916L190.472 12.9611L190.542 14.0889L192.257 14.0195Z" fill="white"/>
<path d="M203.232 13.5749L203.163 12.447L197.512 12.676L197.581 13.8038L203.232 13.5749Z" fill="white"/>
<path d="M209.275 9.92761L209.206 8.7998L197.256 9.28385L197.325 10.4116L209.275 9.92761Z" fill="white"/>
<path d="M205.528 13.4819L205.459 12.354L203.744 12.4235L203.813 13.5512L205.528 13.4819Z" fill="white"/>
<path d="M178.807 12.8517L178.762 11.7518C178.985 11.7306 179.152 11.69 179.263 11.6306C179.373 11.571 179.467 11.4747 179.544 11.3415C179.622 11.2082 179.672 11.0433 179.695 10.8465C179.713 10.6987 179.715 10.4432 179.7 10.0795C179.676 9.48684 179.686 9.07249 179.732 8.83656C179.778 8.60055 179.869 8.40868 180.007 8.26068C180.145 8.11294 180.35 7.99218 180.622 7.8986C180.806 7.83597 181.098 7.79661 181.498 7.7804L181.741 7.77051L181.785 8.86582C181.446 8.87961 181.229 8.9076 181.135 8.94965C181.04 8.99169 180.971 9.05265 180.928 9.13244C180.886 9.21216 180.868 9.34678 180.876 9.53636C180.884 9.7287 180.885 10.0944 180.879 10.6333C180.876 10.9362 180.846 11.1831 180.79 11.3736C180.733 11.5642 180.658 11.7225 180.564 11.8487C180.469 11.975 180.322 12.1079 180.123 12.2475C180.307 12.3442 180.459 12.4597 180.58 12.594C180.7 12.7284 180.794 12.8936 180.864 13.0897C180.933 13.286 180.984 13.5501 181.015 13.8823C181.058 14.3887 181.081 14.7121 181.086 14.8527C181.095 15.0544 181.125 15.1938 181.177 15.2713C181.229 15.3488 181.306 15.4062 181.407 15.4434C181.508 15.4804 181.723 15.4924 182.053 15.4791L182.098 16.579L181.855 16.5889C181.442 16.6055 181.125 16.5856 180.902 16.5288C180.679 16.4719 180.49 16.3703 180.332 16.2237C180.175 16.0768 180.065 15.8925 180.005 15.67C179.943 15.4476 179.903 15.0949 179.884 14.6122C179.861 14.05 179.822 13.6858 179.766 13.5199C179.688 13.2781 179.58 13.1073 179.44 13.0074C179.3 12.9075 179.088 12.8557 178.807 12.8517Z" fill="white"/>
<path d="M216.29 22.1186C216.158 22.2294 216.064 22.4084 216.007 22.6556C215.965 22.8255 215.955 23.1917 215.978 23.7539C215.997 24.2366 215.986 24.5913 215.943 24.818C215.9 25.0447 215.806 25.2373 215.661 25.3964C215.516 25.5552 215.335 25.6719 215.118 25.7465C214.9 25.8212 214.586 25.8668 214.173 25.8836L213.93 25.8933L213.885 24.7934C214.216 24.7801 214.43 24.7507 214.527 24.7056C214.625 24.6604 214.696 24.5969 214.742 24.5154C214.787 24.4341 214.806 24.2926 214.798 24.0909C214.792 23.9503 214.79 23.6262 214.791 23.118C214.795 22.7842 214.824 22.517 214.878 22.3157C214.931 22.1146 215.011 21.9424 215.12 21.7986C215.229 21.6551 215.372 21.5276 215.548 21.4163C215.338 21.2934 215.181 21.1727 215.077 21.0545C214.972 20.9362 214.884 20.7846 214.812 20.5992C214.741 20.4139 214.691 20.1703 214.664 19.8685C214.615 19.332 214.586 18.9673 214.578 18.7749C214.57 18.5854 214.542 18.4527 214.493 18.3766C214.444 18.3006 214.371 18.2454 214.273 18.2111C214.175 18.1767 213.957 18.1664 213.618 18.1802L213.573 17.0849L213.816 17.075C214.216 17.0588 214.511 17.0744 214.699 17.1219C214.978 17.1933 215.192 17.2971 215.341 17.4332C215.49 17.5696 215.597 17.7534 215.661 17.9849C215.726 18.2164 215.77 18.6286 215.795 19.2213C215.809 19.5849 215.832 19.8394 215.862 19.9852C215.9 20.1795 215.963 20.34 216.052 20.4665C216.139 20.593 216.241 20.6814 216.356 20.7318C216.471 20.7822 216.641 20.809 216.864 20.8123L216.909 21.9121C216.628 21.9389 216.422 22.0075 216.29 22.1186Z" fill="white"/>
<path d="M89.4739 97.3245V151.66H93.3113V144.275L128.467 144.352V97.3245H89.4739Z" fill="#312113"/>
<path d="M128.467 105.624H97.2812L89.9145 98.2582C89.7726 98.1156 89.6239 98.0053 89.4739 97.9178V97.3245H128.467V105.624Z" fill="#090401"/>
<path d="M82.8802 99.1085V95.2556H190.577L190.472 99.1085H82.8802Z" fill="#312113"/>
<path d="M190.219 99.28H82.708V95.084H126.757V95.4271H83.0511V98.9369H190.219V99.28Z" fill="black"/>
<path d="M179.463 99.28H175.367V151.644H179.463V99.28Z" fill="#EDE3DD"/>
<path d="M179.463 99.28V103.966H177.293V151.644H175.367V99.28H179.463Z" fill="#312113"/>
<path d="M177.467 103.966H177.119V151.644H177.467V103.966Z" fill="black"/>
<path d="M89.6455 103.409H89.3024V135.949H89.6455V103.409Z" fill="black"/>
<path d="M108.97 144.524H128.638V122.11H128.295V144.18H108.97V144.524Z" fill="black"/>
<path d="M93.4829 145.225H93.1398V150.576H93.4829V145.225Z" fill="black"/>
<path d="M147.481 0.844238H107.494C106.213 0.844238 105.175 1.8825 105.175 3.16336V5.86791H149.8V3.16336C149.8 1.8825 148.762 0.844238 147.481 0.844238Z" fill="#2043EF"/>
<path d="M107.992 3.41357C107.797 3.41357 107.64 3.57079 107.64 3.76495C107.64 3.95883 107.797 4.11605 107.992 4.11605C108.185 4.11605 108.343 3.95883 108.343 3.76495C108.343 3.57079 108.185 3.41357 107.992 3.41357Z" fill="white"/>
<path d="M109.474 3.41357C109.28 3.41357 109.122 3.57079 109.122 3.76495C109.122 3.95883 109.28 4.11605 109.474 4.11605C109.668 4.11605 109.825 3.95883 109.825 3.76495C109.825 3.57079 109.668 3.41357 109.474 3.41357Z" fill="white"/>
<path d="M110.956 3.41357C110.763 3.41357 110.605 3.57079 110.605 3.76495C110.605 3.95883 110.763 4.11605 110.956 4.11605C111.15 4.11605 111.307 3.95883 111.307 3.76495C111.307 3.57079 111.15 3.41357 110.956 3.41357Z" fill="white"/>
<path d="M112.318 54.1629L112.302 53.3757H108.358L108.374 54.1629H112.318Z" fill="#312113"/>
<path d="M116.631 51.7929L116.614 51.0051H108.276L108.292 51.7929H116.631Z" fill="#312113"/>
<path d="M114.872 49.4226L114.856 48.6348H108.166L108.182 49.4226H114.872Z" fill="#312113"/>
<path d="M113.921 54.1629L113.904 53.3757H112.708L112.724 54.1629H113.921Z" fill="#312113"/>
<path d="M121.579 54.1629L121.562 53.3757H117.619L117.636 54.1629H121.579Z" fill="#312113"/>
<path d="M125.891 51.7929L125.875 51.0051H117.537L117.553 51.7929H125.891Z" fill="#312113"/>
<path d="M124.133 49.4226L124.117 48.6348H117.427L117.443 49.4226H124.133Z" fill="#312113"/>
<path d="M123.182 54.1629L123.165 53.3757H121.968L121.985 54.1629H123.182Z" fill="#312113"/>
<path d="M112.262 47.1386L112.245 46.3508H108.302L108.318 47.1386H112.262Z" fill="#312113"/>
<path d="M116.574 44.7688L116.558 43.981H108.22L108.236 44.7688H116.574Z" fill="#312113"/>
<path d="M114.816 42.3983L114.8 41.6106H108.109L108.126 42.3983H114.816Z" fill="#312113"/>
<path d="M113.864 47.1386L113.848 46.3508H112.651L112.668 47.1386H113.864Z" fill="#312113"/>
<path d="M121.523 47.1386L121.506 46.3508H117.563L117.58 47.1386H121.523Z" fill="#FF8376"/>
<path d="M125.836 44.7688L125.819 43.981H117.481L117.497 44.7688H125.836Z" fill="#312113"/>
<path d="M124.077 42.3983L124.061 41.6106H117.37L117.387 42.3983H124.077Z" fill="white"/>
<path d="M123.125 47.1386L123.108 46.3508H121.912L121.928 47.1386H123.125Z" fill="#312113"/>
<path d="M112.206 40.1142L112.189 39.3264H108.246L108.262 40.1142H112.206Z" fill="#312113"/>
<path d="M116.519 37.7436L116.502 36.9561H108.164L108.181 37.7436H116.519Z" fill="#312113"/>
<path d="M114.76 35.3739L114.743 34.5862H108.053L108.069 35.3739H114.76Z" fill="#312113"/>
<path d="M113.808 40.1142L113.792 39.3264H112.595L112.611 40.1142H113.808Z" fill="#312113"/>
<path d="M121.467 40.1142L121.451 39.3264H117.507L117.523 40.1142H121.467Z" fill="#312113"/>
<path d="M125.779 37.7436L125.763 36.9561H117.425L117.441 37.7436H125.779Z" fill="#312113"/>
<path d="M124.021 35.3739L124.004 34.5862H117.314L117.331 35.3739H124.021Z" fill="#312113"/>
<path d="M123.069 40.1142L123.052 39.3264H121.856L121.872 40.1142H123.069Z" fill="#312113"/>
<path d="M112.15 33.0894L112.133 32.3018H108.19L108.206 33.0894H112.15Z" fill="#312113"/>
<path d="M116.462 30.7191L116.446 29.9314H108.108L108.124 30.7191H116.462Z" fill="#312113"/>
<path d="M113.752 33.0894L113.736 32.3018H112.539L112.556 33.0894H113.752Z" fill="#312113"/>
<path d="M121.41 33.0894L121.394 32.3018H117.45L117.467 33.0894H121.41Z" fill="#312113"/>
<path d="M125.723 30.7191L125.707 29.9314H117.368L117.385 30.7191H125.723Z" fill="#312113"/>
<path d="M123.965 28.3492L123.949 27.5615H117.258L117.274 28.3492H123.965Z" fill="#312113"/>
<path d="M123.013 33.0894L122.997 32.3018H121.8L121.816 33.0894H123.013Z" fill="#312113"/>
<path d="M112.093 26.0648L112.077 25.2771H108.134L108.15 26.0648H112.093Z" fill="#312113"/>
<path d="M116.406 23.6949L116.39 22.9072H108.051L108.068 23.6949H116.406Z" fill="#312113"/>
<path d="M114.648 21.3246L114.631 20.5369H107.941L107.957 21.3246H114.648Z" fill="#312113"/>
<path d="M113.696 26.0648L113.68 25.2771H112.483L112.499 26.0648H113.696Z" fill="#312113"/>
<path d="M121.355 26.0648L121.338 25.2771H117.395L117.411 26.0648H121.355Z" fill="#312113"/>
<path d="M125.667 23.6949L125.651 22.9072H117.312L117.329 23.6949H125.667Z" fill="#312113"/>
<path d="M123.908 21.3246L123.892 20.5369H117.202L117.218 21.3246H123.908Z" fill="#312113"/>
<path d="M122.957 26.0648L122.94 25.2771H121.743L121.76 26.0648H122.957Z" fill="#312113"/>
<path d="M112.037 19.0407L112.021 18.2529H108.078L108.094 19.0407H112.037Z" fill="#312113"/>
<path d="M116.35 16.6703L116.334 15.8826H107.996L108.012 16.6703H116.35Z" fill="#312113"/>
<path d="M114.592 14.2999L114.575 13.5122H107.885L107.901 14.2999H114.592Z" fill="#312113"/>
<path d="M113.639 19.0407L113.623 18.2529H112.426L112.443 19.0407H113.639Z" fill="#312113"/>
<path d="M121.298 19.0407L121.282 18.2529H117.338L117.355 19.0407H121.298Z" fill="#312113"/>
<path d="M125.611 16.6703L125.594 15.8826H117.256L117.273 16.6703H125.611Z" fill="#312113"/>
<path d="M123.852 14.2999L123.836 13.5122H117.146L117.162 14.2999H123.852Z" fill="#312113"/>
<path d="M122.9 19.0407L122.884 18.2529H121.687L121.704 19.0407H122.9Z" fill="#312113"/>
<path d="M111.981 12.0159L111.965 11.2283H108.021L108.037 12.0159H111.981Z" fill="#312113"/>
<path d="M116.294 9.64552L116.277 8.85791H107.939L107.955 9.64552H116.294Z" fill="#312113"/>
<path d="M113.583 12.0159L113.567 11.2283H112.37L112.387 12.0159H113.583Z" fill="#312113"/>
<path d="M121.242 12.0159L121.226 11.2283H117.282L117.298 12.0159H121.242Z" fill="#312113"/>
<path d="M125.554 9.64552L125.538 8.85791H117.2L117.216 9.64552H125.554Z" fill="#312113"/>
<path d="M122.845 12.0159L122.828 11.2283H121.632L121.648 12.0159H122.845Z" fill="#312113"/>
<path d="M133.236 54.1629L133.22 53.3757H129.276L129.293 54.1629H133.236Z" fill="#312113"/>
<path d="M137.549 51.7929L137.532 51.0051H129.194L129.211 51.7929H137.549Z" fill="#312113"/>
<path d="M135.79 49.4226L135.774 48.6348H129.084L129.101 49.4226H135.79Z" fill="#312113"/>
<path d="M134.838 54.1629L134.822 53.3757H133.625L133.642 54.1629H134.838Z" fill="#312113"/>
<path d="M142.497 54.1629L142.48 53.3757H138.537L138.553 54.1629H142.497Z" fill="#312113"/>
<path d="M146.809 51.7929L146.793 51.0051H138.455L138.471 51.7929H146.809Z" fill="#312113"/>
<path d="M145.052 49.4226L145.035 48.6348H138.345L138.361 49.4226H145.052Z" fill="#312113"/>
<path d="M144.1 54.1629L144.083 53.3757H142.886L142.903 54.1629H144.1Z" fill="#312113"/>
<path d="M133.18 47.1386L133.163 46.3508H129.219L129.236 47.1386H133.18Z" fill="#312113"/>
<path d="M137.493 44.7688L137.476 43.981H129.138L129.154 44.7688H137.493Z" fill="#312113"/>
<path d="M135.734 42.3983L135.718 41.6106H129.027L129.044 42.3983H135.734Z" fill="#312113"/>
<path d="M134.783 47.1386L134.766 46.3508H133.569L133.586 47.1386H134.783Z" fill="#312113"/>
<path d="M142.441 47.1386L142.425 46.3508H138.481L138.498 47.1386H142.441Z" fill="#312113"/>
<path d="M146.754 44.7688L146.737 43.981H138.399L138.416 44.7688H146.754Z" fill="#FF8376"/>
<path d="M144.995 42.3983L144.979 41.6106H138.288L138.305 42.3983H144.995Z" fill="white"/>
<path d="M144.043 47.1386L144.027 46.3508H142.83L142.847 47.1386H144.043Z" fill="#312113"/>
<path d="M133.124 40.1142L133.107 39.3264H129.164L129.181 40.1142H133.124Z" fill="#312113"/>
<path d="M137.437 37.7436L137.42 36.9561H129.082L129.099 37.7436H137.437Z" fill="#312113"/>
<path d="M135.678 35.3739L135.662 34.5862H128.971L128.987 35.3739H135.678Z" fill="#312113"/>
<path d="M134.726 40.1142L134.71 39.3264H133.513L133.529 40.1142H134.726Z" fill="#312113"/>
<path d="M142.385 40.1142L142.368 39.3264H138.425L138.441 40.1142H142.385Z" fill="#312113"/>
<path d="M146.697 37.7436L146.681 36.9561H138.343L138.359 37.7436H146.697Z" fill="#312113"/>
<path d="M144.939 35.3739L144.922 34.5862H138.232L138.249 35.3739H144.939Z" fill="#312113"/>
<path d="M143.987 40.1142L143.97 39.3264H142.774L142.79 40.1142H143.987Z" fill="#312113"/>
<path d="M135.79 63.5124L135.774 62.7239H129.084L129.101 63.5124H135.79Z" fill="#312113"/>
<path d="M145.052 63.5124L145.035 62.7239H138.345L138.361 63.5124H145.052Z" fill="#312113"/>
<path d="M133.18 61.2276L133.163 60.4404H129.219L129.236 61.2276H133.18Z" fill="#312113"/>
<path d="M137.493 58.8574L137.476 58.0696H129.138L129.154 58.8574H137.493Z" fill="#312113"/>
<path d="M135.734 56.4873L135.718 55.6995H129.027L129.044 56.4873H135.734Z" fill="#312113"/>
<path d="M134.783 61.2276L134.766 60.4404H133.569L133.586 61.2276H134.783Z" fill="#312113"/>
<path d="M142.441 61.2276L142.425 60.4404H138.481L138.498 61.2276H142.441Z" fill="#312113"/>
<path d="M146.754 58.8574L146.737 58.0696H138.399L138.416 58.8574H146.754Z" fill="#FF8376"/>
<path d="M144.995 56.4873L144.979 55.6995H138.288L138.305 56.4873H144.995Z" fill="white"/>
<path d="M144.043 61.2276L144.027 60.4404H142.83L142.847 61.2276H144.043Z" fill="#312113"/>
<path d="M133.068 33.0894L133.051 32.3018H129.108L129.124 33.0894H133.068Z" fill="#312113"/>
<path d="M137.38 30.7191L137.364 29.9314H129.026L129.042 30.7191H137.38Z" fill="#312113"/>
<path d="M134.67 33.0894L134.653 32.3018H133.457L133.473 33.0894H134.67Z" fill="#312113"/>
<path d="M142.328 33.0894L142.312 32.3018H138.368L138.385 33.0894H142.328Z" fill="#312113"/>
<path d="M146.641 30.7191L146.625 29.9314H138.286L138.303 30.7191H146.641Z" fill="#312113"/>
<path d="M144.883 28.3492L144.866 27.5615H138.176L138.193 28.3492H144.883Z" fill="#312113"/>
<path d="M143.931 33.0894L143.915 32.3018H142.718L142.734 33.0894H143.931Z" fill="#312113"/>
<path d="M133.011 26.0648L132.995 25.2771H129.052L129.068 26.0648H133.011Z" fill="#312113"/>
<path d="M137.324 23.6949L137.307 22.9072H128.969L128.986 23.6949H137.324Z" fill="#312113"/>
<path d="M135.566 21.3246L135.549 20.5369H128.859L128.876 21.3246H135.566Z" fill="#312113"/>
<path d="M134.614 26.0648L134.598 25.2771H133.401L133.417 26.0648H134.614Z" fill="#312113"/>
<path d="M142.272 26.0648L142.256 25.2771H138.313L138.329 26.0648H142.272Z" fill="#312113"/>
<path d="M146.585 23.6949L146.569 22.9072H138.23L138.247 23.6949H146.585Z" fill="#312113"/>
<path d="M144.827 21.3246L144.81 20.5369H138.12L138.136 21.3246H144.827Z" fill="white"/>
<path d="M143.875 26.0648L143.858 25.2771H142.661L142.678 26.0648H143.875Z" fill="#312113"/>
<path d="M132.955 19.0407L132.939 18.2529H128.996L129.012 19.0407H132.955Z" fill="#312113"/>
<path d="M137.268 16.6703L137.252 15.8826H128.914L128.93 16.6703H137.268Z" fill="#312113"/>
<path d="M135.51 14.2999L135.493 13.5122H128.803L128.819 14.2999H135.51Z" fill="#312113"/>
<path d="M134.558 19.0407L134.541 18.2529H133.345L133.361 19.0407H134.558Z" fill="#312113"/>
<path d="M142.217 19.0407L142.2 18.2529H138.256L138.273 19.0407H142.217Z" fill="#312113"/>
<path d="M146.529 16.6703L146.513 15.8826H138.174L138.191 16.6703H146.529Z" fill="#312113"/>
<path d="M144.77 14.2999L144.754 13.5122H138.064L138.081 14.2999H144.77Z" fill="#312113"/>
<path d="M143.818 19.0407L143.802 18.2529H142.605L142.622 19.0407H143.818Z" fill="#312113"/>
<path d="M132.899 12.0159L132.883 11.2283H128.939L128.956 12.0159H132.899Z" fill="#312113"/>
<path d="M137.212 9.64552L137.195 8.85791H128.857L128.874 9.64552H137.212Z" fill="#312113"/>
<path d="M134.502 12.0159L134.485 11.2283H133.289L133.305 12.0159H134.502Z" fill="#312113"/>
<path d="M142.16 12.0159L142.144 11.2283H138.2L138.216 12.0159H142.16Z" fill="#312113"/>
<path d="M146.472 9.64552L146.456 8.85791H138.118L138.134 9.64552H146.472Z" fill="#FF8376"/>
<path d="M143.763 12.0159L143.746 11.2283H142.55L142.566 12.0159H143.763Z" fill="#312113"/>
<path d="M149.99 66.4918H149.61V3.2035C149.61 2.00714 148.637 1.034 147.44 1.034H107.534C106.338 1.034 105.364 2.00714 105.364 3.2035V48.6463H104.985V3.2035C104.985 1.79785 106.128 0.654297 107.534 0.654297H147.44C148.846 0.654297 149.99 1.79785 149.99 3.2035V66.4918Z" fill="#312113"/>
<path d="M99.0485 65.4576C99.9843 65.3614 100.843 64.8952 101.458 64.139C102.116 63.3304 102.429 62.2573 102.317 61.1944L100.323 42.3467C100.095 40.1984 98.2586 38.6161 96.2276 38.8192H96.2283L67.7996 41.7073C67.7929 41.708 67.7869 41.7087 67.7801 41.7094C66.8484 41.8078 65.9993 42.2748 65.3892 43.0259C64.7312 43.8346 64.4184 44.9076 64.5307 45.9699L66.5248 64.8178C66.7522 66.9666 68.5888 68.5489 70.6185 68.3457L87.2201 66.6228L97.485 71.6187L96.4301 65.6998L99.0485 65.4576ZM87.1595 66.9679L70.6528 68.6808C68.4388 68.9028 66.4366 67.1859 66.1897 64.8535L64.1957 46.0055C64.0739 44.8551 64.4137 43.6913 65.1275 42.8133C65.7995 41.9871 66.7407 41.4743 67.7653 41.3721L96.194 38.4841C98.4087 38.2623 100.411 39.9792 100.658 42.3112L102.652 61.1594C102.774 62.3105 102.434 63.4736 101.719 64.3523C101.053 65.1724 100.124 65.6823 99.1023 65.7906C99.0949 65.7913 99.0882 65.792 99.0808 65.7926L96.8263 66.0012L97.933 72.2114L87.1595 66.9679Z" fill="#312113"/>
<path d="M94.6125 39.9438L66.1839 42.8319C64.0667 43.0439 62.5281 45.0457 62.7649 47.2799L64.7583 66.1278C64.9951 68.3627 66.9205 70.017 69.037 69.8051L85.5908 68.0875L96.11 73.2072L95.0296 67.1423L97.4663 66.9169C99.5835 66.705 101.121 64.7036 100.885 62.4693L98.8912 43.6214C98.6551 41.3867 96.729 39.7319 94.6125 39.9438Z" fill="#F2CD5D"/>
<path d="M63.2935 51.5642L62.9585 51.5992L64.528 66.4503C64.7655 68.6946 66.7845 70.328 69.0288 70.0906L73.5026 69.6176L73.4676 69.2826L68.9938 69.7555C66.9338 69.9735 65.081 68.4746 64.8631 66.4153L63.2935 51.5642Z" fill="#312113"/>
<path d="M92.4139 71.5943L86.6625 68.795L86.8085 68.4956L92.5599 71.2949L92.4139 71.5943Z" fill="#312113"/>
<path d="M74.2272 57.3855C74.3517 58.4848 74.721 59.3056 75.3245 59.827C75.9481 60.3652 76.8039 60.5885 77.8682 60.4896C78.7811 60.4055 79.5056 60.1452 80.0223 59.7153C80.5376 59.2881 80.8754 58.7452 81.0267 58.104C81.1404 57.6062 81.1552 56.8911 81.0711 55.9808L80.428 49.0104L78.4319 49.1947L79.0879 56.3105C79.1753 57.255 79.1208 57.8773 78.9224 58.2124C78.7178 58.5568 78.3371 58.7566 77.7901 58.8071C77.2445 58.8582 76.8099 58.6719 76.5004 58.2534C76.3121 58.0025 76.1762 57.5907 76.0867 56.996L74.2272 57.3855ZM77.3925 60.7742C76.4816 60.7742 75.7301 60.5226 75.1536 60.0254C74.4761 59.4401 74.0725 58.5212 73.9541 57.294L73.9426 57.1777L76.308 56.6825L76.3262 56.8224C76.4076 57.4373 76.5368 57.8666 76.7103 58.0966C76.966 58.4418 77.3111 58.5891 77.7666 58.5467C78.2314 58.5037 78.5355 58.3509 78.697 58.0791C78.8645 57.7973 78.9082 57.21 78.8275 56.3347L78.1467 48.9579L80.6648 48.7258L81.3322 55.9566C81.419 56.8951 81.4015 57.6371 81.2817 58.1632C81.1169 58.8622 80.7496 59.4522 80.1892 59.9171C79.6314 60.3807 78.8591 60.6612 77.8924 60.75C77.7208 60.7661 77.554 60.7742 77.3925 60.7742Z" fill="black"/>
<path d="M83.2381 56.3688C83.5038 57.5064 84.0232 58.3568 84.7834 58.899C85.5746 59.4628 86.6745 59.6841 88.0537 59.5576C89.0056 59.4695 89.7974 59.2609 90.4076 58.9374C91.0084 58.6185 91.4605 58.1691 91.7518 57.6026C92.0444 57.0335 92.1635 56.4334 92.107 55.8191C92.0438 55.1376 91.8467 54.5732 91.5204 54.1406C91.1941 53.7074 90.7595 53.3764 90.23 53.1564C89.6891 52.933 88.8522 52.7399 87.7428 52.5839C86.5857 52.421 85.8638 52.2313 85.5355 52.0039C85.2617 51.8135 85.1083 51.5633 85.0808 51.2585C85.0498 50.9248 85.1642 50.6423 85.4198 50.4182C85.7871 50.0967 86.3193 49.9016 87.0028 49.8383C87.6675 49.7771 88.1895 49.8666 88.5555 50.1054C88.9007 50.3308 89.157 50.717 89.3178 51.2558L91.33 50.9807C91.184 50.0576 90.7548 49.3344 90.0531 48.8312C89.3144 48.3011 88.2447 48.0959 86.8763 48.2224C86.0361 48.2997 85.3223 48.4942 84.7551 48.8009C84.1954 49.103 83.7776 49.5107 83.5132 50.0126C83.2488 50.5145 83.1398 51.0439 83.1896 51.5868C83.2677 52.4318 83.668 53.1281 84.3791 53.6562C84.889 54.035 85.7636 54.3209 86.9786 54.5052C87.9413 54.6526 88.5703 54.7616 88.8488 54.8302C89.2767 54.9392 89.5781 55.0845 89.7692 55.2749C89.9636 55.4686 90.076 55.7162 90.1035 56.0115C90.1452 56.463 89.9791 56.8801 89.6111 57.2494C89.2491 57.6134 88.6813 57.8334 87.9238 57.9033C87.2067 57.9693 86.6086 57.8367 86.1471 57.5104C85.7104 57.2016 85.3828 56.6937 85.1722 55.9994L83.2381 56.3688ZM87.3257 59.8536C86.2271 59.8536 85.3229 59.6054 84.6313 59.1123C83.787 58.5101 83.2226 57.5616 82.9528 56.2928L82.9252 56.1622L85.3593 55.6967L85.3909 55.8138C85.5826 56.5074 85.8881 57.0065 86.2984 57.2965C86.7075 57.5858 87.2463 57.7028 87.9003 57.6423C88.5945 57.5784 89.1079 57.384 89.4254 57.0651C89.7409 56.7482 89.8775 56.4112 89.8425 56.0351C89.821 55.7996 89.7369 55.6119 89.5848 55.4606C89.4294 55.3065 89.1603 55.1793 88.7849 55.0838C88.5158 55.0179 87.8942 54.9102 86.9389 54.7642C85.6815 54.5732 84.7679 54.2711 84.223 53.8661C83.4493 53.2923 83.014 52.5334 82.9293 51.611C82.8748 51.0163 82.9932 50.4378 83.2818 49.8901C83.5711 49.3418 84.0245 48.8978 84.6307 48.5709C85.2288 48.2473 85.9762 48.0421 86.8521 47.9613C88.2864 47.8295 89.414 48.0501 90.2058 48.618C91.001 49.1891 91.4733 50.0159 91.6078 51.0762L91.6246 51.2047L89.126 51.5465L89.0958 51.4341C88.9551 50.902 88.7251 50.5286 88.4129 50.3247C88.0974 50.1189 87.6312 50.0428 87.0264 50.0987C86.3993 50.1565 85.917 50.3308 85.5927 50.6154C85.4003 50.7829 85.3182 50.9854 85.3411 51.2343C85.362 51.4617 85.475 51.6427 85.6849 51.7887C85.9748 51.9898 86.6792 52.1701 87.7792 52.3242C88.9107 52.4836 89.7692 52.6827 90.3303 52.9148C90.9034 53.1523 91.3744 53.5122 91.7296 53.9832C92.0855 54.4548 92.3001 55.0643 92.3674 55.7949C92.4293 56.4596 92.3001 57.1081 91.9846 57.7224C91.6684 58.3373 91.1793 58.8243 90.5301 59.1688C89.8896 59.5085 89.0641 59.7265 88.0779 59.818C87.8175 59.8422 87.5673 59.8536 87.3257 59.8536Z" fill="black"/>
<path d="M77.7 49.7962L79.9577 49.5876L80.613 56.6886C80.6984 57.617 80.683 58.3389 80.5652 58.8535C80.4065 59.5269 80.0566 60.088 79.5171 60.5361C78.9769 60.9848 78.2348 61.2526 77.2916 61.3393C76.1842 61.4416 75.3043 61.2102 74.6497 60.6464C73.9958 60.0813 73.611 59.2 73.4952 58.0011L75.6077 57.5598C75.6925 58.2003 75.8284 58.6456 76.0167 58.8952C76.2986 59.276 76.6895 59.4428 77.1893 59.3964C77.6946 59.35 78.0384 59.1731 78.2207 58.8656C78.403 58.5582 78.4528 57.9507 78.3687 57.0425L77.7 49.7962Z" fill="white"/>
<path d="M82.4921 56.986L84.6758 56.5682C84.877 57.2961 85.1965 57.8141 85.6338 58.1236C86.0711 58.4337 86.6349 58.5562 87.3231 58.4929C88.0524 58.4257 88.5879 58.2205 88.929 57.8774C89.2708 57.5349 89.4221 57.1568 89.3844 56.7438C89.3596 56.4787 89.2607 56.2601 89.0884 56.0878C88.9155 55.9163 88.6289 55.779 88.2287 55.6774C87.9548 55.6102 87.3352 55.5025 86.3698 55.3552C85.1279 55.1662 84.2419 54.8749 83.7118 54.4813C82.9664 53.9276 82.5526 53.2071 82.4705 52.3191C82.4181 51.7479 82.5304 51.1989 82.8083 50.6715C83.0868 50.144 83.518 49.7222 84.104 49.406C84.6893 49.0892 85.4132 48.8914 86.2756 48.812C87.6837 48.6821 88.7716 48.8934 89.5405 49.4444C90.3088 49.996 90.7582 50.7852 90.8894 51.8125L88.6337 52.1213C88.4836 51.5541 88.2374 51.1586 87.895 50.9352C87.5532 50.7118 87.0634 50.6298 86.4257 50.689C85.7677 50.7495 85.2645 50.9325 84.9173 51.2373C84.6933 51.4324 84.5951 51.6759 84.622 51.9665C84.6462 52.2316 84.7794 52.4489 85.0216 52.6164C85.3291 52.8297 86.0462 53.016 87.1718 53.1741C88.2979 53.3329 89.1375 53.5266 89.6912 53.7561C90.2449 53.9855 90.693 54.3272 91.0361 54.782C91.3785 55.2361 91.583 55.8181 91.6483 56.5271C91.7075 57.1696 91.585 57.7886 91.2796 58.3826C90.9742 58.9766 90.5073 59.4402 89.8796 59.7732C89.2519 60.1062 88.4507 60.3181 87.4765 60.4076C86.0583 60.5388 84.9389 60.3114 84.1188 59.7261C83.298 59.1408 82.7558 58.2272 82.4921 56.986Z" fill="white"/>
<defs>
<linearGradient id="paint0_linear_24_213" x1="123.033" y1="94.0844" x2="125.482" y2="94.0844" gradientUnits="userSpaceOnUse">
<stop stop-color="#AACDFF"/>
<stop offset="1" stop-color="#DBE8FF"/>
</linearGradient>
<linearGradient id="paint1_linear_24_213" x1="120.082" y1="94.0844" x2="122.532" y2="94.0844" gradientUnits="userSpaceOnUse">
<stop stop-color="#AACDFF"/>
<stop offset="1" stop-color="#DBE8FF"/>
</linearGradient>
<linearGradient id="paint2_linear_24_213" x1="117.132" y1="94.0844" x2="119.581" y2="94.0844" gradientUnits="userSpaceOnUse">
<stop stop-color="#AACDFF"/>
<stop offset="1" stop-color="#DBE8FF"/>
</linearGradient>
<linearGradient id="paint3_linear_24_213" x1="114.182" y1="94.0844" x2="116.631" y2="94.0844" gradientUnits="userSpaceOnUse">
<stop stop-color="#AACDFF"/>
<stop offset="1" stop-color="#DBE8FF"/>
</linearGradient>
<linearGradient id="paint4_linear_24_213" x1="111.725" y1="94.0844" x2="113.157" y2="94.0844" gradientUnits="userSpaceOnUse">
<stop stop-color="#AACDFF"/>
<stop offset="1" stop-color="#DBE8FF"/>
</linearGradient>
<linearGradient id="paint5_linear_24_213" x1="109.986" y1="94.0844" x2="111.418" y2="94.0844" gradientUnits="userSpaceOnUse">
<stop stop-color="#AACDFF"/>
<stop offset="1" stop-color="#DBE8FF"/>
</linearGradient>
<linearGradient id="paint6_linear_24_213" x1="108.349" y1="94.0844" x2="109.78" y2="94.0844" gradientUnits="userSpaceOnUse">
<stop stop-color="#AACDFF"/>
<stop offset="1" stop-color="#DBE8FF"/>
</linearGradient>
</defs>
</svg>
