<svg width="128" height="128" viewBox="0 0 128 128" fill="none" xmlns="http://www.w3.org/2000/svg">
<path d="M40 76.43C39.18 76.43 38.36 76.1 37.77 75.44C33.35 70.54 30.28 64.57 28.88 58.16C28.53 56.54 29.55 54.94 31.17 54.59C32.79 54.23 34.39 55.26 34.74 56.88C35.92 62.27 38.51 67.3 42.23 71.43C43.34 72.66 43.24 74.56 42.01 75.67C41.44 76.18 40.72 76.43 40 76.43ZM101.82 19.47C100.84 13.98 96.08 10 90.5 10C88.5 10 86.58 10.53 84.88 11.48C82.59 8.13 78.75 6 74.52 6C70.87 6 67.56 7.56 65.27 10.08C63.16 7.59 60.01 6 56.5 6C51.15 6 46.66 9.68 45.38 14.63C43.65 13.6 41.65 13 39.5 13C33.16 13 28 18.16 28 24.5V40.5C28 46.84 33.16 52 39.5 52C43.94 52 47.8 49.46 49.71 45.76C51.61 47.16 53.96 48 56.5 48C59.65 48 62.59 46.75 64.78 44.48C65.93 43.29 65.9 41.39 64.7 40.24C63.51 39.09 61.61 39.12 60.46 40.32C59.41 41.4 58.01 42 56.5 42C53.47 42 51 39.53 51 36.5V17.5C51 14.47 53.47 12 56.5 12C59.53 12 62 14.47 62 17.5C62 18.84 62.89 19.97 64.11 20.35C64.14 20.36 64.16 20.37 64.19 20.37C64.32 20.41 64.46 20.44 64.6 20.46C64.65 20.47 64.69 20.49 64.75 20.49C64.86 20.5 64.96 20.51 65.07 20.51C66.58 20.51 67.89 19.37 68.05 17.83C68.39 14.5 71.18 12 74.52 12C77.47 12 80.06 13.99 80.82 16.83C81.25 18.43 82.89 19.38 84.49 18.95C84.55 18.94 84.59 18.91 84.65 18.89C85.28 18.76 85.87 18.44 86.31 17.92C87.37 16.7 88.89 16 90.5 16C93.17 16 95.45 17.9 95.92 20.53C96.18 21.98 97.44 23 98.87 23C99.04 23 99.22 22.98 99.4 22.95C101.03 22.66 102.11 21.1 101.82 19.47ZM45 40.5C45 43.53 42.53 46 39.5 46C36.47 46 34 43.53 34 40.5V24.5C34 21.47 36.47 19 39.5 19C42.53 19 45 21.47 45 24.5V36.5V40.5Z" fill="white"/>
<path d="M102.18 30.17C102.15 30.11 102.11 30.05 102.07 29.99C100.7 27.88 98.73 26.31 96.36 25.45L78.51 18.95C72.55 16.78 65.94 19.87 63.77 25.82C62.72 28.71 62.85 31.83 64.15 34.61C65.45 37.39 67.75 39.51 70.64 40.56L77.83 43.18C69.53 46.8 63.71 55.08 63.71 64.7C63.71 66.36 65.05 67.7 66.71 67.7C68.37 67.7 69.71 66.36 69.71 64.7C69.71 55.08 77.54 47.25 87.16 47.25H89.51C90.97 47.25 92.21 46.2 92.46 44.77C92.71 43.34 91.9 41.93 90.53 41.43L72.68 34.93C71.3 34.43 70.2 33.42 69.58 32.09C68.96 30.76 68.89 29.27 69.4 27.88C70.44 25.03 73.6 23.56 76.45 24.59L94.3 31.09C95.37 31.48 96.28 32.18 96.93 33.1C96.97 33.17 97.01 33.24 97.06 33.31C97.67 34.22 98 35.28 98 36.38V50C98 64.24 88.44 76.9 74.76 80.79C73.17 81.24 72.24 82.9 72.69 84.5C73.07 85.82 74.27 86.68 75.57 86.68C75.84 86.68 76.12 86.64 76.39 86.56C77.62 86.21 78.82 85.79 79.99 85.33V123.86C79.99 125.52 81.33 126.86 82.99 126.86C84.65 126.86 85.99 125.52 85.99 123.86V82.3C96.94 75.49 103.99 63.33 103.99 50V36.38C104 34.16 103.37 32.02 102.18 30.17ZM40 126.86C38.34 126.86 37 125.52 37 123.86V73.43C37 71.77 38.34 70.43 40 70.43C41.66 70.43 43 71.77 43 73.43V123.86C43 125.51 41.66 126.86 40 126.86Z" fill="white"/>
</svg>
