<svg width="128" height="128" viewBox="0 0 128 128" fill="none" xmlns="http://www.w3.org/2000/svg">
<path d="M64 20C50.2087 20 36.9823 25.4786 27.2304 35.2304C17.4786 44.9823 12 58.2087 12 72V88C12 89.0609 12.4214 90.0783 13.1716 90.8284C13.9217 91.5786 14.9391 92 16 92H24V104C24 106.122 24.8429 108.157 26.3431 109.657C27.8434 111.157 29.8783 112 32 112H40C42.1217 112 44.1566 111.157 45.6569 109.657C47.1571 108.157 48 106.122 48 104V80C48 77.8783 47.1571 75.8434 45.6569 74.3431C44.1566 72.8429 42.1217 72 40 72H32C29.8783 72 27.8434 72.8429 26.3431 74.3431C24.8429 75.8434 24 77.8783 24 80V84H20V72C20 60.3305 24.6357 49.1389 32.8873 40.8873C41.1389 32.6357 52.3305 28 64 28C75.6695 28 86.8611 32.6357 95.1127 40.8873C103.364 49.1389 108 60.3305 108 72V84H104V80C104 77.8783 103.157 75.8434 101.657 74.3431C100.157 72.8429 98.1217 72 96 72H88C85.8783 72 83.8434 72.8429 82.3431 74.3431C80.8429 75.8434 80 77.8783 80 80V104C80 106.122 80.8429 108.157 82.3431 109.657C83.8434 111.157 85.8783 112 88 112H96C98.1217 112 100.157 111.157 101.657 109.657C103.157 108.157 104 106.122 104 104V92H112C113.061 92 114.078 91.5786 114.828 90.8284C115.579 90.0783 116 89.0609 116 88V72C116 58.2087 110.521 44.9823 100.77 35.2304C91.0177 25.4786 77.7913 20 64 20ZM40 80V104H32V80H40ZM96 104H88V80H96V104Z" fill="black"/>
</svg>
