<svg width="128" height="128" viewBox="0 0 128 128" fill="none" xmlns="http://www.w3.org/2000/svg">
<path d="M37.3332 53.333C37.4904 51.5213 37.8481 49.7325 38.3998 47.9997C38.9142 46.1413 39.6483 44.3509 40.5865 42.6664C38.9566 42.697 37.354 42.2451 35.9802 41.3675C34.6065 40.4898 33.5228 39.2255 32.8657 37.7337C32.2085 36.2418 32.0071 34.5889 32.2868 32.9829C32.5664 31.3769 33.3147 29.8894 34.4375 28.7075C35.5603 27.5256 37.0075 26.7021 38.5971 26.3404C40.1867 25.9788 41.8477 26.0953 43.3713 26.6751C44.8949 27.255 46.213 28.2724 47.1599 29.5994C48.1069 30.9263 48.6403 32.5037 48.6932 34.133C50.2316 33.0613 51.8757 32.1498 53.5998 31.413C55.2416 30.754 56.9366 30.2366 58.6665 29.8664C57.7963 26.5854 56.0576 23.5998 53.6336 21.2237C51.2095 18.8476 48.1897 17.169 44.892 16.3645C41.5943 15.5601 38.1408 15.6595 34.8949 16.6524C31.649 17.6453 28.7308 19.495 26.4474 22.0066C24.1641 24.5182 22.6002 27.599 21.9202 30.9246C21.2402 34.2501 21.4694 37.6975 22.5836 40.9038C23.6977 44.1102 25.6557 46.9568 28.2514 49.1441C30.8471 51.3314 33.9844 52.7785 37.3332 53.333ZM40.5332 74.6663C42.0259 74.6969 43.5106 74.8937 44.9598 75.253C43.2676 73.4767 41.8153 71.4864 40.6398 69.333C39.7148 67.6356 38.9643 65.8486 38.3998 63.9997C30.868 64.5264 23.8165 67.8913 18.6691 73.4149C13.5216 78.9385 10.6616 86.2094 10.6665 93.7597C10.6665 95.1742 11.2284 96.5307 12.2286 97.5309C13.2288 98.5311 14.5854 99.093 15.9998 99.093H27.7865C28.3268 97.2667 29.0043 95.4839 29.8132 93.7597C30.6901 91.9075 31.7063 90.1246 32.8532 88.4263H22.1865C23.3418 84.4552 25.7552 80.9665 29.0638 78.485C32.3725 76.0035 36.3974 74.6635 40.5332 74.6663ZM79.4132 34.2397C79.5479 32.6495 80.143 31.1329 81.1257 29.8755C82.1085 28.618 83.4362 27.6741 84.9468 27.1591C86.4573 26.6441 88.0852 26.5803 89.6314 26.9756C91.1776 27.3709 92.5751 28.208 93.6532 29.3847C94.7313 30.5615 95.4432 32.0268 95.7019 33.6016C95.9606 35.1764 95.7549 36.7925 95.11 38.2523C94.465 39.7121 93.4087 40.9523 92.0703 41.8215C90.7318 42.6906 89.1691 43.151 87.5732 43.1464C88.5114 44.8309 89.2454 46.6213 89.7598 48.4797C90.3115 50.2125 90.6693 52.0013 90.8265 53.813C94.1293 53.2094 97.2114 51.7359 99.7551 49.5445C102.299 47.353 104.212 44.5229 105.298 41.3458C106.383 38.1687 106.602 34.7595 105.932 31.4696C105.261 28.1798 103.725 25.1283 101.483 22.6296C99.2399 20.131 96.3715 18.2756 93.173 17.2547C89.9745 16.2337 86.5616 16.0842 83.286 16.8215C80.0105 17.5588 76.9908 19.1563 74.5382 21.4493C72.0857 23.7422 70.2889 26.6478 69.3332 29.8664C71.1598 30.2208 72.9464 30.7568 74.6665 31.4664C76.3311 32.2421 77.9201 33.1705 79.4132 34.2397ZM89.5998 63.9997C89.0354 65.8486 88.2849 67.6356 87.3598 69.333C86.1869 71.5178 84.7149 73.5283 82.9865 75.3063C84.4829 74.9035 86.0237 74.6885 87.5732 74.6663C91.7068 74.6721 95.7276 76.0155 99.0345 78.4957C102.341 80.9759 104.757 84.4597 105.92 88.4263H95.2532C96.4 90.1246 97.4163 91.9075 98.2932 93.7597C99.1021 95.4839 99.7796 97.2667 100.32 99.093H112C113.414 99.093 114.771 98.5311 115.771 97.5309C116.771 96.5307 117.333 95.1742 117.333 93.7597C117.351 86.2057 114.495 78.9278 109.345 73.4015C104.195 67.8752 97.1363 64.5141 89.5998 63.9997ZM47.9998 46.2397C46.6372 48.3929 45.7465 50.8104 45.3865 53.333C45.1954 54.3716 45.0883 55.4239 45.0665 56.4797C45.1154 59.4499 45.8452 62.3693 47.1998 65.013C49.0234 68.5518 51.916 71.4257 55.4665 73.2263C58.0035 74.5604 60.8143 75.2905 63.6798 75.3597C63.8313 75.4758 63.9582 75.6208 64.0532 75.7863L64.4265 75.3063C67.2542 75.2566 70.0308 74.5442 72.5332 73.2263C76.0682 71.4227 78.9428 68.548 80.7465 65.013C82.1536 62.3868 82.9039 59.4589 82.9332 56.4797C82.9112 55.4062 82.8042 54.3362 82.6132 53.2797C82.2166 50.7498 81.3288 48.3219 79.9998 46.133C78.9111 44.4063 77.5411 42.8741 75.9465 41.5997C72.5405 38.9049 68.3424 37.4056 63.9998 37.333C62.3601 37.369 60.7307 37.6017 59.1465 38.0264C56.6853 38.7051 54.3831 39.8652 52.3732 41.4397C50.632 42.7564 49.1493 44.3838 47.9998 46.2397ZM63.9998 47.9997C65.6348 47.9997 67.2331 48.4845 68.5926 49.3929C69.952 50.3012 71.0116 51.5923 71.6372 53.1028C72.2629 54.6134 72.4266 56.2755 72.1077 57.8791C71.7887 59.4827 71.0014 60.9557 69.8453 62.1118C68.6891 63.2679 67.2162 64.0552 65.6126 64.3742C64.009 64.6931 62.3469 64.5294 60.8363 63.9038C59.3258 63.2781 58.0347 62.2185 57.1264 60.8591C56.218 59.4996 55.7332 57.9013 55.7332 56.2664C55.7332 54.0739 56.6041 51.9712 58.1544 50.4209C59.7047 48.8706 61.8074 47.9997 63.9998 47.9997ZM89.0665 93.7597C87.8219 91.8322 86.3736 90.0441 84.7465 88.4263C81.4535 85.2426 77.4768 82.853 73.1198 81.4397C71.2264 80.735 69.2577 80.2518 67.2532 79.9997C66.1696 79.9366 65.0834 79.9366 63.9998 79.9997H61.1198H60.8532C58.8617 80.2126 56.8964 80.6235 54.9865 81.2263C50.6296 82.6396 46.6529 85.0293 43.3598 88.213C41.7328 89.8308 40.2845 91.6188 39.0398 93.5463C37.9755 95.2392 37.0652 97.0242 36.3198 98.8797C35.0106 102.283 34.3416 105.9 34.3465 109.546C34.3465 110.961 34.9084 112.317 35.9086 113.318C36.9088 114.318 38.2654 114.88 39.6798 114.88H88.5332C89.9477 114.88 91.3042 114.318 92.3044 113.318C93.3046 112.317 93.8665 110.961 93.8665 109.546C93.8714 105.9 93.2024 102.283 91.8932 98.8797C91.1023 97.0937 90.1565 95.3805 89.0665 93.7597ZM47.9998 99.093C49.415 96.9863 51.2264 95.1749 53.3332 93.7597C54.6299 92.8667 56.0491 92.1661 57.5465 91.6797C59.2677 91.1005 61.0647 90.777 62.8798 90.7197H64.1065C65.9216 90.7778 67.7184 91.1012 69.4398 91.6797C70.8798 92.2229 72.2567 92.9202 73.5465 93.7597C77.4555 96.1994 80.3239 99.9987 81.5998 104.426H45.6532C46.1642 102.541 46.9552 100.743 47.9998 99.093Z" fill="white"/>
</svg>
